<?xml version="1.0" encoding="UTF-8" standalone="no"?><!DOCTYPE svg PUBLIC "-//W3C//DTD SVG 1.1//EN" "http://www.w3.org/Graphics/SVG/1.1/DTD/svg11.dtd"><svg width="100%" height="100%" viewBox="0 0 135 136" version="1.1" xmlns="http://www.w3.org/2000/svg" xmlns:xlink="http://www.w3.org/1999/xlink" xml:space="preserve" xmlns:serif="http://www.serif.com/" style="fill-rule:evenodd;clip-rule:evenodd;"><g><path d="M78.498,5.061c3.031,-0.869 6.295,-0.055 8.564,2.136l40.287,38.905c2.269,2.19 3.196,5.425 2.433,8.485l-13.548,54.342c-0.763,3.06 -3.101,5.479 -6.132,6.348l-53.837,15.438c-3.03,0.869 -6.295,0.055 -8.563,-2.136l-40.288,-38.905c-2.268,-2.189 -3.196,-5.425 -2.432,-8.484l13.548,-54.343c0.763,-3.059 3.101,-5.479 6.132,-6.348l53.836,-15.438Z" style="fill:none;fill-rule:nonzero;stroke:url(#_Linear1);stroke-width:2.29px;"/><path d="M75.025,13.736c2.57,-0.835 5.391,-0.235 7.4,1.574l35.676,32.122c2.007,1.808 2.899,4.55 2.337,7.195l-9.982,46.955c-0.561,2.644 -2.491,4.787 -5.061,5.623l-45.656,14.835c-2.57,0.834 -5.391,0.235 -7.4,-1.575l-35.675,-32.121c-2.009,-1.808 -2.9,-4.551 -2.337,-7.195l9.98,-46.956c0.562,-2.643 2.491,-4.787 5.063,-5.623l45.655,-14.834Z" style="fill:none;fill-rule:nonzero;stroke:url(#_Linear2);stroke-width:2.29px;"/><path d="M72.172,22.568c2.116,-0.77 4.483,-0.353 6.208,1.095l30.646,25.713c1.725,1.448 2.547,3.707 2.156,5.925l-6.946,39.397c-0.392,2.218 -1.936,4.059 -4.054,4.83l-37.591,13.682c-2.117,0.769 -4.484,0.353 -6.209,-1.095l-30.645,-25.714c-1.726,-1.448 -2.548,-3.706 -2.155,-5.925l6.946,-39.396c0.391,-2.219 1.936,-4.06 4.052,-4.83l37.592,-13.682Z" style="fill:none;fill-rule:nonzero;stroke:url(#_Linear3);stroke-width:2.29px;"/><path d="M69.946,31.519c1.672,-0.674 3.575,-0.406 4.995,0.703l25.22,19.703c1.419,1.109 2.139,2.892 1.888,4.677l-4.454,31.691c-0.251,1.785 -1.434,3.3 -3.105,3.974l-29.672,11.99c-1.671,0.674 -3.575,0.407 -4.995,-0.703l-25.22,-19.703c-1.42,-1.109 -2.139,-2.891 -1.888,-4.676l4.454,-31.692c0.25,-1.785 1.434,-3.3 3.104,-3.975l29.673,-11.989Z" style="fill:none;fill-rule:nonzero;stroke:url(#_Linear4);stroke-width:2.29px;"/><path d="M68.352,40.561c1.235,-0.549 2.669,-0.398 3.763,0.396l19.418,14.108c1.093,0.795 1.68,2.113 1.539,3.457l-2.51,23.871c-0.141,1.343 -0.988,2.51 -2.223,3.059l-21.928,9.763c-1.234,0.55 -2.669,0.399 -3.762,-0.396l-19.418,-14.108c-1.093,-0.794 -1.68,-2.111 -1.539,-3.455l2.509,-23.871c0.142,-1.344 0.989,-2.511 2.224,-3.06l21.927,-9.764Z" style="fill:none;fill-rule:nonzero;stroke:url(#_Linear5);stroke-width:2.29px;"/><path d="M67.393,49.659c0.81,-0.395 1.768,-0.328 2.515,0.175l13.266,8.95c0.748,0.502 1.169,1.367 1.106,2.266l-1.117,15.962c-0.062,0.899 -0.6,1.696 -1.41,2.091l-14.382,7.014c-0.81,0.396 -1.769,0.329 -2.516,-0.175l-13.265,-8.948c-0.748,-0.504 -1.169,-1.369 -1.106,-2.267l1.115,-15.963c0.064,-0.898 0.601,-1.696 1.412,-2.091l14.382,-7.014Z" style="fill:none;fill-rule:nonzero;stroke:url(#_Linear6);stroke-width:2.29px;"/><path d="M67.069,58.78c0.398,-0.212 0.878,-0.195 1.26,0.044l6.786,4.239c0.382,0.239 0.607,0.664 0.592,1.113l-0.279,7.996c-0.017,0.451 -0.272,0.859 -0.669,1.07l-7.064,3.757c-0.398,0.21 -0.878,0.195 -1.26,-0.045l-6.786,-4.24c-0.381,-0.239 -0.608,-0.662 -0.592,-1.113l0.28,-7.996c0.015,-0.45 0.269,-0.858 0.667,-1.069l7.065,-3.756Z" style="fill:none;fill-rule:nonzero;stroke:url(#_Linear7);stroke-width:2.29px;"/></g><defs><linearGradient id="_Linear1" x1="0" y1="0" x2="1" y2="0" gradientUnits="userSpaceOnUse" gradientTransform="matrix(105.887,106.576,-106.576,105.887,23.3506,22.0379)"><stop offset="0" style="stop-color:#3d8eef;stop-opacity:1"/><stop offset="1" style="stop-color:#2749bb;stop-opacity:1"/></linearGradient><linearGradient id="_Linear2" x1="0" y1="0" x2="1" y2="0" gradientUnits="userSpaceOnUse" gradientTransform="matrix(105.887,106.576,-106.576,105.887,23.3506,22.0379)"><stop offset="0" style="stop-color:#3d8eef;stop-opacity:1"/><stop offset="1" style="stop-color:#2749bb;stop-opacity:1"/></linearGradient><linearGradient id="_Linear3" x1="0" y1="0" x2="1" y2="0" gradientUnits="userSpaceOnUse" gradientTransform="matrix(105.887,106.576,-106.576,105.887,23.3506,22.0379)"><stop offset="0" style="stop-color:#3d8eef;stop-opacity:1"/><stop offset="1" style="stop-color:#2749bb;stop-opacity:1"/></linearGradient><linearGradient id="_Linear4" x1="0" y1="0" x2="1" y2="0" gradientUnits="userSpaceOnUse" gradientTransform="matrix(105.887,106.576,-106.576,105.887,23.3506,22.0379)"><stop offset="0" style="stop-color:#3d8eef;stop-opacity:1"/><stop offset="1" style="stop-color:#2749bb;stop-opacity:1"/></linearGradient><linearGradient id="_Linear5" x1="0" y1="0" x2="1" y2="0" gradientUnits="userSpaceOnUse" gradientTransform="matrix(105.887,106.576,-106.576,105.887,23.3506,22.0379)"><stop offset="0" style="stop-color:#3d8eef;stop-opacity:1"/><stop offset="1" style="stop-color:#2749bb;stop-opacity:1"/></linearGradient><linearGradient id="_Linear6" x1="0" y1="0" x2="1" y2="0" gradientUnits="userSpaceOnUse" gradientTransform="matrix(105.887,106.576,-106.576,105.887,23.3506,22.0379)"><stop offset="0" style="stop-color:#3d8eef;stop-opacity:1"/><stop offset="1" style="stop-color:#2749bb;stop-opacity:1"/></linearGradient><linearGradient id="_Linear7" x1="0" y1="0" x2="1" y2="0" gradientUnits="userSpaceOnUse" gradientTransform="matrix(105.887,106.576,-106.576,105.887,23.3506,22.0379)"><stop offset="0" style="stop-color:#3d8eef;stop-opacity:1"/><stop offset="1" style="stop-color:#2749bb;stop-opacity:1"/></linearGradient></defs></svg>