<svg width="17085" height="1528" viewBox="0 0 17085 1528" fill="none" xmlns="http://www.w3.org/2000/svg">
<path fill-rule="evenodd" clip-rule="evenodd" d="M0.527879 888.024C244.195 892.785 374.097 921.043 886.056 715.369C1904.69 306.147 3215.75 538.068 4141.42 713.12C5684.97 1005.02 6378.9 308.921 7506.35 458.094C7982.36 521.076 8345.17 786.383 8663.57 867.718C7773.36 988.425 7376.38 1481.21 5981.03 1230.82C4751.14 1010.13 3482.87 1891.8 2280.6 1338.59C1117.41 803.368 615.066 982.965 0.525879 888.024H0.527879Z" fill="#F49388" fill-opacity="0.5"/>
<path fill-rule="evenodd" clip-rule="evenodd" d="M17084.2 891.764C16840.6 896.525 16710.7 924.783 16198.7 719.11C15180.1 309.887 13869 541.808 12943.3 716.861C11399.8 1008.76 10705.9 312.661 9578.41 461.835C9102.39 524.817 8739.59 790.124 8421.19 871.458C9311.39 992.165 9708.38 1484.95 11103.7 1234.56C12333.6 1013.87 13601.9 1895.54 14804.2 1342.34C15967.3 807.109 16469.7 986.705 17084.2 891.764H17084.2Z" fill="#F49388" fill-opacity="0.5"/>
<path fill-rule="evenodd" clip-rule="evenodd" d="M16967.2 575.505C16723.6 580.266 16593.7 608.524 16081.7 402.85C15063.1 -6.37152 13752 225.549 12826.3 400.601C11282.8 692.5 10588.9 -3.59755 9461.41 145.575C8985.39 208.557 8622.59 473.864 8304.19 555.199C9194.4 675.906 9591.38 1168.69 10986.7 918.304C12216.6 697.608 13484.9 1579.28 14687.2 1026.08C15850.3 490.849 16352.7 670.446 16967.2 575.505H16967.2Z" fill="#85B5FB" fill-opacity="0.5"/>
<path fill-rule="evenodd" clip-rule="evenodd" d="M801.164 636.855C1044.83 641.616 1174.73 669.874 1686.69 464.2C2705.32 54.9783 4016.38 286.899 4942.05 461.951C6485.6 753.85 7179.53 57.7513 8306.98 206.925C8783 269.907 9145.8 535.214 9464.2 616.549C8574 737.256 8177.01 1230.04 6781.66 979.654C5551.77 758.958 4283.5 1640.63 3081.23 1087.43C1918.04 552.199 1415.7 731.795 801.162 636.855H801.164Z" fill="#85B5FB" fill-opacity="0.5"/>
<path fill-rule="evenodd" clip-rule="evenodd" d="M4330.47 451.85C4574.13 456.612 4704.04 484.87 5215.99 279.196C6234.62 -130.026 7545.68 101.895 8471.35 276.947C10014.9 568.846 10708.8 -127.253 11836.3 21.9214C12312.3 84.9034 12675.1 350.21 12993.5 431.545C12103.3 552.252 11706.3 1045.04 10311 794.649C9081.07 573.954 7812.79 1455.63 6610.53 902.421C5447.34 367.194 4945 546.791 4330.46 451.85H4330.47Z" fill="#9DE9D9" fill-opacity="0.5"/>
<path fill-rule="evenodd" clip-rule="evenodd" d="M4095.77 829.635C4339.44 834.396 4469.34 862.656 4981.3 656.982C5999.93 247.76 7310.99 479.681 8236.66 654.733C9780.21 946.632 10474.1 250.533 11601.6 399.707C12077.6 462.689 12440.4 727.996 12758.8 809.331C11868.6 930.037 11471.6 1422.82 10076.3 1172.43C8846.38 951.74 7578.1 1833.41 6375.84 1280.21C5212.65 744.98 4710.31 924.576 4095.77 829.635H4095.77Z" fill="#EEB166" fill-opacity="0.5"/>
</svg>
