<?xml version="1.0" encoding="UTF-8" standalone="no"?><!DOCTYPE svg PUBLIC "-//W3C//DTD SVG 1.1//EN" "http://www.w3.org/Graphics/SVG/1.1/DTD/svg11.dtd"><svg width="100%" height="100%" viewBox="0 0 12555 14065" version="1.1" xmlns="http://www.w3.org/2000/svg" xmlns:xlink="http://www.w3.org/1999/xlink" xml:space="preserve" xmlns:serif="http://www.serif.com/" style="fill-rule:evenodd;clip-rule:evenodd;stroke-linejoin:round;stroke-miterlimit:2;"><g><g><path d="M10505.1,664.957c1408.33,-691.667 1331.87,2778.62 1483.33,5033.33c145.833,2170.83 608.333,6654.17 -795.833,8204.17c-566.048,624.836 -5331.75,-627.815 -4500,-3358.33c1045.83,-3433.33 -5785.43,-1662.04 -6558.33,-3220.83c-713.974,-1439.95 5610.72,1663.61 6737.5,-2904.17c638.69,-2589.15 1578.44,-2744.96 3633.33,-3754.17Z" style="fill:url(#_Radial1);"/><path d="M10505.1,664.957c2410.18,187.708 1331.87,2778.62 1483.33,5033.33c145.833,2170.83 608.333,6654.17 -795.833,8204.17c-566.048,624.836 -1847.94,-617.328 -1795.83,-2616.67c86.968,-3337.21 -1383.13,-4159.93 -4833.33,-2779.17c-2187.89,875.589 -3947.48,-531.729 -3837.5,-1183.33c60.232,-356.862 5295.54,524.624 5741.67,-3433.33c239.118,-2121.43 1687.78,-3408 4037.5,-3225Z" style="fill:url(#_Radial2);"/><path d="M10271.7,144.124c2415.13,-833.119 1594.37,2120.28 1745.83,4375c145.833,2170.83 1298.77,4794.08 -304.167,6137.5c-437.5,366.666 -1654.71,468.878 -1675,-3041.67c-12.5,-2162.5 -2800,-887.5 -4270.83,-275c-832.255,346.576 -1836.4,924.147 -2791.67,941.667c-1309.81,24.021 -2505.89,-630.469 -2841.67,-958.334c-1149.95,-1122.87 5430.98,1615.48 6737.5,-2904.17c179.291,-620.22 356.548,-1152.11 550.778,-1611.71c600.399,-1420.7 1362.99,-2150.6 2849.22,-2663.29Z" style="fill:url(#_Radial3);"/></g></g><defs><radialGradient id="_Radial1" cx="0" cy="0" r="1" gradientUnits="userSpaceOnUse" gradientTransform="matrix(-2667.32,10263.4,-4993.22,-1297.67,6872.3,7037.61)"><stop offset="0" style="stop-color:#95e8c9;stop-opacity:0.8"/><stop offset="1" style="stop-color:#84f0d7;stop-opacity:0.8"/></radialGradient><radialGradient id="_Radial2" cx="0" cy="0" r="1" gradientUnits="userSpaceOnUse" gradientTransform="matrix(-2667.32,10263.4,-4993.22,-1297.67,1417.55,7073.29)"><stop offset="0" style="stop-color:#5f9bcd;stop-opacity:0.8"/><stop offset="1" style="stop-color:#84c6fd;stop-opacity:0.8"/></radialGradient><radialGradient id="_Radial3" cx="0" cy="0" r="1" gradientUnits="userSpaceOnUse" gradientTransform="matrix(-2667.32,10263.4,-4993.22,-1297.67,6872.3,7037.61)"><stop offset="0" style="stop-color:#ef6d8b;stop-opacity:0.8"/><stop offset="1" style="stop-color:#f6b48f;stop-opacity:0.8"/></radialGradient></defs></svg>