<svg width="845" height="846" viewBox="0 0 845 846" fill="none" xmlns="http://www.w3.org/2000/svg">
<path fill-rule="evenodd" clip-rule="evenodd" d="M844.945 211.893V634.107C844.945 750.607 750.403 845.28 633.772 845.28H211.557C95.0573 845.28 0.384521 750.607 0.384521 634.107V211.893C0.384521 95.3927 95.0573 0.719971 211.557 0.719971H633.772C750.403 0.719971 844.945 95.3927 844.945 211.893Z" fill="url(#paint0_radial_312_26)"/>
<path d="M586.14 312.73C606.686 319.569 622.036 333.546 628.814 351.588C635.591 369.629 633.241 390.256 622.28 408.931L539.623 549.762C528.662 568.437 509.988 583.631 487.709 592.001C465.43 600.37 441.371 601.23 420.825 594.392L329.334 563.939L207.588 583.536C203.921 584.126 200.266 583.935 196.958 582.98C193.65 582.024 190.795 580.335 188.653 578.066C186.511 575.798 185.151 573.023 184.698 569.995C184.245 566.967 184.712 563.784 186.058 560.735L187.12 558.69L207.784 523.482L188.417 517.036C168.542 510.42 153.502 497.114 146.408 479.87C139.315 462.625 140.711 442.762 150.307 424.388L152.276 420.835L234.934 280.004C245.895 261.329 264.569 246.135 286.848 237.766C309.127 229.396 333.186 228.536 353.732 235.374L586.14 312.73ZM415.681 445.38L299.477 406.702C294.34 404.992 288.326 405.207 282.756 407.299C277.186 409.392 272.518 413.19 269.777 417.859C267.037 422.528 266.45 427.685 268.144 432.195C269.838 436.705 273.676 440.2 278.813 441.909L395.016 480.587C400.153 482.297 406.168 482.082 411.737 479.989C417.307 477.897 421.976 474.099 424.716 469.43C427.456 464.761 428.044 459.604 426.349 455.094C424.655 450.584 420.817 447.089 415.681 445.38ZM495.744 387.857L340.806 336.286C335.669 334.577 329.654 334.792 324.085 336.884C318.515 338.976 313.846 342.775 311.106 347.444C308.366 352.113 307.778 357.269 309.473 361.78C311.167 366.29 315.005 369.784 320.141 371.494L475.08 423.065C480.216 424.774 486.231 424.559 491.801 422.467C497.37 420.374 502.039 416.576 504.779 411.907C507.52 407.238 508.107 402.081 506.413 397.571C504.718 393.061 500.881 389.567 495.744 387.857Z" fill="white"/>
<defs>
<radialGradient id="paint0_radial_312_26" cx="0" cy="0" r="1" gradientUnits="userSpaceOnUse" gradientTransform="translate(66.7869 73.171) rotate(46.6568) scale(1002.45 1262.92)">
<stop stop-color="#FF8469"/>
<stop offset="1" stop-color="#DA52BB"/>
</radialGradient>
</defs>
</svg>
