<svg width="846" height="846" viewBox="0 0 846 846" fill="none" xmlns="http://www.w3.org/2000/svg">
<path fill-rule="evenodd" clip-rule="evenodd" d="M845.31 211.707V633.922C845.31 750.422 750.769 845.095 634.137 845.095H211.923C95.4227 845.095 0.749878 750.422 0.749878 633.922V211.707C0.749878 95.2073 95.4227 0.534546 211.923 0.534546H634.137C750.769 0.534546 845.31 95.2073 845.31 211.707Z" fill="url(#paint0_radial_312_19)"/>
<path d="M458.985 164.897C493.384 145.037 539.33 154.339 563.612 185.428L565.967 188.614L713.194 398.876C735.976 431.413 727.599 473.548 694.825 494.848L691.461 496.907L469.167 625.248C452.691 634.762 432.657 637.936 413.191 634.116C393.726 630.296 376.313 619.774 364.54 604.717L362.185 601.531L214.959 391.269C192.176 358.732 200.553 316.597 233.327 295.297L236.691 293.238L458.985 164.897ZM382.251 419.003L347.15 439.268L345.178 440.57C341.086 443.634 338.473 448.071 337.874 452.973C337.275 457.875 338.734 462.873 341.954 466.946C345.174 471.018 349.911 473.858 355.197 474.885C360.484 475.911 365.921 475.047 370.397 472.469L405.498 452.204L407.47 450.902C411.562 447.838 414.175 443.401 414.774 438.499C415.373 433.597 413.914 428.599 410.694 424.526C407.474 420.454 402.737 417.614 397.451 416.588C392.164 415.561 386.727 416.425 382.251 419.003ZM417.581 328.671L312.278 389.467L310.306 390.769C306.214 393.833 303.602 398.269 303.003 403.172C302.404 408.074 303.863 413.072 307.083 417.144C310.302 421.217 315.039 424.057 320.326 425.083C325.613 426.11 331.05 425.246 335.526 422.668L440.828 361.872L442.8 360.57C446.893 357.506 449.505 353.069 450.104 348.167C450.703 343.265 449.244 338.267 446.024 334.194C442.805 330.122 438.067 327.282 432.781 326.255C427.494 325.229 422.057 326.093 417.581 328.671ZM347.609 299.135L277.407 339.665L275.435 340.967C271.343 344.031 268.731 348.468 268.131 353.37C267.532 358.272 268.992 363.27 272.211 367.343C275.431 371.415 280.168 374.255 285.455 375.282C290.741 376.308 296.178 375.444 300.655 372.866L370.856 332.336L372.828 331.034C376.92 327.97 379.533 323.533 380.132 318.631C380.731 313.729 379.272 308.731 376.052 304.658C372.832 300.586 368.095 297.746 362.809 296.719C357.522 295.693 352.085 296.557 347.609 299.135Z" fill="white"/>
<defs>
<radialGradient id="paint0_radial_312_19" cx="0" cy="0" r="1" gradientUnits="userSpaceOnUse" gradientTransform="translate(67.1523 72.9855) rotate(46.6568) scale(1002.45 1262.92)">
<stop stop-color="#C573F5"/>
<stop offset="1" stop-color="#7B47E8"/>
</radialGradient>
</defs>
</svg>
