<svg width="136" height="136" viewBox="0 0 136 136" fill="none" xmlns="http://www.w3.org/2000/svg">
    <g clip-path="url(#clip0_423_2)">
        <path
            d="M67.9366 0.126831C105.457 0.126831 135.873 30.5431 135.873 68.0634C135.873 105.584 105.457 136 67.9366 136C30.4162 136 0 105.584 0 68.0634C0 30.5431 30.4162 0.126831 67.9366 0.126831Z"
            fill="#ECF8FD" />
        <mask id="mask0_423_2" style="mask-type:luminance" maskUnits="userSpaceOnUse" x="0" y="0"
            width="136" height="136">
            <path
                d="M67.9366 0.126831C105.457 0.126831 135.873 30.5431 135.873 68.0634C135.873 105.584 105.457 136 67.9366 136C30.4162 136 0 105.584 0 68.0634C0 30.5431 30.4162 0.126831 67.9366 0.126831Z"
                fill="white" />
        </mask>
        <g mask="url(#mask0_423_2)">
            <path fill-rule="evenodd" clip-rule="evenodd"
                d="M98.3094 150.128C118.259 159.926 117.175 110.768 119.321 78.8298C121.387 48.0795 127.938 -15.4278 108.048 -37.3837C100.03 -46.2347 32.5226 -28.4907 44.3046 10.1877C59.1191 58.8215 -37.6471 33.7307 -48.5955 55.8113C-58.709 76.2086 30.8815 32.2461 46.8426 96.9495C55.8897 133.625 69.2014 135.832 98.3094 150.128Z"
                fill="url(#paint0_radial_423_2)" />
            <path fill-rule="evenodd" clip-rule="evenodd"
                d="M98.3094 150.128C132.45 147.469 117.176 110.768 119.321 78.8297C121.387 48.0794 127.938 -15.4279 108.048 -37.3838C100.03 -46.2348 81.8716 -28.6393 82.6097 -0.318311C83.8416 46.954 63.0173 58.608 14.1445 39.0491C-16.8474 26.6462 -41.7722 46.5812 -40.2144 55.8112C-39.3612 60.8663 34.798 48.38 41.1174 104.445C44.5046 134.496 65.025 152.72 98.3094 150.128Z"
                fill="url(#paint1_radial_423_2)" />
            <path fill-rule="evenodd" clip-rule="evenodd"
                d="M95.0043 157.506C129.215 169.307 117.589 127.471 119.734 95.533C121.8 64.7827 138.132 27.6237 115.426 8.59398C109.228 3.40013 91.9864 1.95235 91.699 51.6798C91.522 82.312 52.0365 64.2515 31.202 55.5752C19.4128 50.666 5.18893 42.4846 -8.3427 42.2364C-26.8963 41.8962 -43.8391 51.1671 -48.5954 55.8113C-64.8846 71.717 28.3355 32.9277 46.8427 96.9494C49.3823 105.735 51.8932 113.269 54.6445 119.78C63.1493 139.904 73.9514 150.243 95.0043 157.506Z"
                fill="url(#paint2_radial_423_2)" />
        </g>
    </g>
    <defs>
        <radialGradient id="paint0_radial_423_2" cx="0" cy="0" r="1" gradientUnits="userSpaceOnUse"
            gradientTransform="translate(46.8507 59.8581) rotate(-104.568) scale(150.212 73.0795)">
            <stop stop-color="#95E8C9" stop-opacity="0.8" />
            <stop offset="1" stop-color="#84F0D7" stop-opacity="0.8" />
        </radialGradient>
        <radialGradient id="paint1_radial_423_2" cx="0" cy="0" r="1" gradientUnits="userSpaceOnUse"
            gradientTransform="translate(-30.4168 59.3525) rotate(-104.568) scale(150.212 73.0795)">
            <stop stop-color="#5F9BCD" stop-opacity="0.8" />
            <stop offset="1" stop-color="#84C6FD" stop-opacity="0.8" />
        </radialGradient>
        <radialGradient id="paint2_radial_423_2" cx="0" cy="0" r="1" gradientUnits="userSpaceOnUse"
            gradientTransform="translate(46.8507 59.8581) rotate(-104.568) scale(150.212 73.0795)">
            <stop stop-color="#EF6D8B" stop-opacity="0.8" />
            <stop offset="1" stop-color="#F6B48F" stop-opacity="0.8" />
        </radialGradient>
        <clipPath id="clip0_423_2">
            <rect width="136" height="136" fill="white" transform="matrix(1 0 0 -1 0 136)" />
        </clipPath>
    </defs>
</svg>