<svg width="155" height="154" viewBox="0 0 155 154" fill="none" xmlns="http://www.w3.org/2000/svg">
<path fill-rule="evenodd" clip-rule="evenodd" d="M0.924194 38.3165V114.848C0.924194 135.965 18.0609 153.125 39.2017 153.125H115.733C136.85 153.125 154.01 135.965 154.01 114.848V38.3165C154.01 17.1996 136.85 0.0390625 115.733 0.0390625H39.2017C18.0609 0.0390625 0.924194 17.1996 0.924194 38.3165Z" fill="url(#paint0_radial_277_615)"/>
<path d="M93.1281 96.4862C99.4953 95.6345 104.423 90.1708 104.423 83.5745C104.423 76.9946 99.5201 71.5417 93.1761 70.6688V68.5784C93.1761 67.4782 92.2843 66.5864 91.1841 66.5864H36.1988C35.0986 66.5864 34.2068 67.4782 34.2068 68.5784V94.8214C34.2068 105.844 40.2878 115.472 49.2701 120.53H31.6167C30.5166 120.53 29.6248 121.422 29.6248 122.522C29.6248 123.623 30.5166 124.514 31.6167 124.514H95.3496C96.4498 124.514 97.3416 123.623 97.3416 122.522C97.3416 121.422 96.4498 120.53 95.3496 120.53H78.1126C86.64 115.728 92.5509 106.808 93.1281 96.4862ZM93.1761 74.7054C97.313 75.536 100.439 79.1968 100.439 83.5745C100.439 87.9524 97.3128 91.613 93.1761 92.4438V74.7054ZM63.6916 120.322C49.6304 120.322 38.191 108.883 38.191 94.8218V78.902H58.2765C59.3767 78.902 60.2685 78.0103 60.2685 76.9101C60.2685 75.8099 59.3767 74.9181 58.2765 74.9181H38.191V70.571H89.1921V94.822C89.1921 108.883 77.7527 120.322 63.6916 120.322Z" fill="white"/>
<path d="M68.8947 33.7944C67.7945 33.7944 66.9027 34.6862 66.9027 35.7864C66.9027 36.8866 67.7945 37.7784 68.8947 37.7784C72.289 37.7784 75.0507 40.5399 75.0507 43.9345C75.0507 47.3288 72.2892 50.0905 68.8947 50.0905C63.3035 50.0905 58.7546 54.6394 58.7546 60.2306C58.7546 61.3308 59.6464 62.2226 60.7466 62.2226C61.8468 62.2226 62.7386 61.3308 62.7386 60.2306C62.7386 56.8362 65.5001 54.0745 68.8947 54.0745C74.4859 54.0745 79.0347 49.5257 79.0347 43.9345C79.0347 38.3433 74.4859 33.7944 68.8947 33.7944Z" fill="white"/>
<path d="M61.4257 40.8107C58.0313 40.8107 55.2696 38.0492 55.2696 34.6547C55.2696 31.2602 58.0312 28.4986 61.4257 28.4986C62.5259 28.4986 63.4177 27.6068 63.4177 26.5066C63.4177 25.4064 62.5259 24.5146 61.4257 24.5146C55.8345 24.5146 51.2856 29.0635 51.2856 34.6547C51.2858 40.2459 55.8347 44.7947 61.4257 44.7947C62.5259 44.7947 63.4177 43.9029 63.4177 42.8027C63.4177 41.7025 62.5259 40.8107 61.4257 40.8107Z" fill="white"/>
<path fill-rule="evenodd" clip-rule="evenodd" d="M113.552 97.3205C114.016 97.4774 114.334 97.92 114.339 98.4187C114.35 98.6377 114.352 98.8158 114.352 98.8158C114.352 98.8158 114.383 104.89 107.387 110.434C104.541 112.69 102.084 116.371 101.458 119.823C101.376 120.285 101.028 120.647 100.578 120.739C100.128 120.83 99.665 120.634 99.4058 120.241C97.3831 117.191 95.0753 111.5 98.8222 104.804C102.201 98.7659 108.489 95.7084 113.552 97.3205ZM112.067 99.2201C107.717 98.6399 103.471 101.313 100.842 106.005C98.7538 109.732 99.1877 113.983 100.241 116.8C101.079 114.202 102.726 111.103 105.949 108.548C110.057 105.293 111.635 101.029 112.067 99.2201Z" fill="white"/>
<path fill-rule="evenodd" clip-rule="evenodd" d="M103.734 123.943C103.248 123.781 102.916 123.319 102.91 122.799C102.899 122.596 102.897 122.436 102.897 122.436C102.897 122.436 102.867 116.362 109.862 110.818C112.682 108.582 115.121 104.947 115.774 101.522C115.864 101.045 116.228 100.673 116.695 100.583C117.163 100.492 117.641 100.7 117.906 101.108C119.914 104.181 122.134 109.823 118.427 116.448C115.056 122.471 108.79 125.528 103.734 123.943ZM105.182 122.032C109.532 122.612 113.778 119.939 116.407 115.247C118.495 111.52 118.061 107.269 117.008 104.452C116.17 107.05 114.523 110.149 111.3 112.704C107.192 115.959 105.614 120.223 105.182 122.032Z" fill="white"/>
<defs>
<radialGradient id="paint0_radial_277_615" cx="0" cy="0" r="1" gradientUnits="userSpaceOnUse" gradientTransform="translate(16.0714 9.76279) rotate(47.1906) scale(181.402 228.537)">
<stop stop-color="#4BDCED"/>
<stop offset="1" stop-color="#00B4F5"/>
</radialGradient>
</defs>
</svg>
