<svg width="154" height="154" viewBox="0 0 154 154" fill="none" xmlns="http://www.w3.org/2000/svg">
<path fill-rule="evenodd" clip-rule="evenodd" d="M0.822144 38.9035V115.435C0.822144 136.552 17.9588 153.712 39.0996 153.712H115.631C136.748 153.712 153.908 136.552 153.908 115.435V38.9035C153.908 17.7865 136.748 0.625977 115.631 0.625977H39.0996C17.9588 0.625977 0.822144 17.7865 0.822144 38.9035Z" fill="url(#paint0_radial_277_543)"/>
<path d="M86.5404 29.4708C85.8166 28.8389 84.8261 28.6169 83.8987 28.8683C80.7948 29.7098 73.7336 31.7521 65.3844 35.0164C54.2181 39.3809 41.8008 45.8537 36.9614 52.7805C30.7805 61.5837 28.6006 75.5532 33.0972 85.0746C35.0385 89.1751 41.8472 93.8547 48.218 97.0981C54.5568 100.313 60.3036 102.299 60.4023 102.333C60.4054 102.334 60.4051 102.334 60.4082 102.335C61.2615 102.624 61.8307 103.431 61.817 104.332L61.8167 104.349C61.6942 112.193 61.4455 119.496 61.2614 127.069C61.2205 128.751 62.574 130.134 64.2559 130.134H74.5142C76.2016 130.134 76.9211 128.891 75.4402 128.082C73.5965 127.075 70.8614 126.061 68.4239 125.167C67.5682 124.853 67.0744 123.96 67.2609 123.068C68.6405 116.252 69.3795 108.174 69.9334 100.378C70.0485 98.7583 68.8243 97.3795 67.2938 96.8368C66.8183 96.6682 66.3508 96.4693 65.8941 96.2409C62.9751 94.8046 60.4499 92.2099 58.8051 88.8276C58.5347 88.2418 58.0303 87.8021 57.4148 87.6083C55.4715 86.9963 53.7284 86.2746 52.1563 85.3989C47.3145 82.7116 44.187 78.588 41.6155 72.75C41.1494 71.6763 41.6623 70.424 42.7507 69.9932C46.3878 68.5105 48.5655 67.3754 50.3493 65.3367C52.11 63.2749 53.6158 60.0548 55.2838 54.1936C55.461 53.6177 55.871 53.1422 56.4145 52.8822L81.2891 40.9829C82.2685 40.5144 83.4247 40.6116 84.3122 41.2372L104.733 55.6316C105.791 56.3773 106.211 57.706 105.877 58.9564C105.697 59.6318 105.565 60.3018 105.546 60.9678C105.523 61.7954 106.074 62.4987 106.825 62.8482C109.806 64.2362 114.548 65.5558 118.667 66.4487C120.953 66.9367 122.593 64.674 120.992 62.9709C120.555 62.5066 120.089 62.0545 119.594 61.6069C116.884 59.1976 113.293 57.0199 109.285 54.379C109.147 54.2867 109.021 54.177 108.91 54.0527L108.891 54.0315C101.1 45.3137 94.2977 36.2448 86.5404 29.4708ZM95.8807 54.5154C93.8622 53.0928 91.2354 55.7882 92.4643 57.9302C93.329 59.4371 94.1072 60.9906 94.7596 62.6031C95.0223 63.2452 94.9694 63.9736 94.5938 64.5569C94.2357 65.1131 93.8831 65.6505 93.5904 66.2101C93.028 67.2854 93.5964 68.5227 94.683 69.063C97.9563 70.6906 102.261 71.987 105.995 72.8427C106.089 72.8638 106.182 72.8847 106.274 72.9054C107.89 73.2668 108.974 71.5353 107.802 70.3639C105.416 67.9314 102.312 65.4989 99.4392 63.5992C98.886 63.2499 98.5329 62.6536 98.4894 62.0007C98.317 59.5868 97.5831 57.3934 96.5489 55.2901C96.3961 54.9792 96.1639 54.7149 95.8807 54.5154ZM66.9134 74.3949C66.1026 74.3949 65.3149 74.5802 64.5967 74.9277C62.9751 75.7153 61.8631 77.3138 61.4229 79.4915C60.9827 81.6923 61.2839 84.4028 62.5349 86.9974C63.8091 89.6153 65.7551 91.5149 67.7705 92.5342C69.7629 93.5072 71.6857 93.6231 73.3305 92.8354C74.9522 92.0477 76.0642 90.4493 76.5275 88.2716C76.9677 86.0708 76.6433 83.3603 75.3923 80.7425C74.1182 78.1478 72.1722 76.225 70.1799 75.2288C69.0679 74.6728 67.9559 74.3949 66.9134 74.3949Z" fill="white"/>
<defs>
<radialGradient id="paint0_radial_277_543" cx="0" cy="0" r="1" gradientUnits="userSpaceOnUse" gradientTransform="translate(16.8638 9.43844) rotate(46.787) scale(181.8 229.039)">
<stop stop-color="#FF8469"/>
<stop offset="1" stop-color="#DA52BB"/>
</radialGradient>
</defs>
</svg>
