<svg width="155" height="154" viewBox="0 0 155 154" fill="none" xmlns="http://www.w3.org/2000/svg">
<path fill-rule="evenodd" clip-rule="evenodd" d="M0.985229 39.1481V115.679C0.985229 136.796 18.1219 153.957 39.2627 153.957H115.794C136.911 153.957 154.071 136.796 154.071 115.679V39.1481C154.071 18.0311 136.911 0.870605 115.794 0.870605H39.2627C18.1219 0.870605 0.985229 18.0311 0.985229 39.1481Z" fill="url(#paint0_radial_277_605)"/>
<path d="M127.313 112.636C127.313 112.636 118.12 104.859 111.631 57.6952C109.889 40.2277 95.2866 26.5894 77.5282 26.5894C59.7713 26.5894 45.1675 40.2275 43.4251 57.695C36.936 104.859 27.7435 112.636 27.7435 112.636C24.7634 117.652 31.8334 118.249 35.3775 118.202C42.3319 118.107 42.3319 126.229 49.2878 126.229C56.2422 126.229 56.2422 119.205 63.1966 119.205C70.151 119.205 70.5736 128.238 77.528 128.238C84.4824 128.238 84.9035 119.205 91.8595 119.205C98.8139 119.205 98.8139 126.229 105.768 126.229C112.723 126.229 112.726 118.107 119.68 118.202C123.223 118.249 130.293 117.652 127.313 112.636ZM68.2111 71.244C65.7418 71.244 63.7379 69.222 63.7379 66.7267C63.7379 64.2329 65.7418 62.2125 68.2111 62.2125C70.6801 62.2125 72.6812 64.2329 72.6812 66.7267C72.6812 69.222 70.6801 71.244 68.2111 71.244ZM85.81 71.244C83.3392 71.244 81.3384 69.222 81.3384 66.7267C81.3384 64.2329 83.3392 62.2125 85.81 62.2125C88.2776 62.2125 90.2814 64.2329 90.2814 66.7267C90.2814 69.222 88.2776 71.244 85.81 71.244Z" fill="white"/>
<defs>
<radialGradient id="paint0_radial_277_605" cx="0" cy="0" r="1" gradientUnits="userSpaceOnUse" gradientTransform="translate(16.1324 10.5943) rotate(47.1906) scale(181.402 228.537)">
<stop stop-color="#4BDCED"/>
<stop offset="1" stop-color="#00B4F5"/>
</radialGradient>
</defs>
</svg>
