<svg width="154" height="154" viewBox="0 0 154 154" fill="none" xmlns="http://www.w3.org/2000/svg">
<path fill-rule="evenodd" clip-rule="evenodd" d="M0.850464 39.0475V115.579C0.850464 136.696 17.9871 153.856 39.1279 153.856H115.659C136.776 153.856 153.937 136.696 153.937 115.579V39.0475C153.937 17.9305 136.776 0.77002 115.659 0.77002H39.1279C17.9871 0.77002 0.850464 17.9305 0.850464 39.0475Z" fill="url(#paint0_radial_277_549)"/>
<path d="M104.179 24.4509C103.351 24.1393 102.416 24.3672 101.828 25.0233L89.6681 38.5964H65.119L52.9587 25.0233C52.3713 24.3674 51.4358 24.1395 50.6078 24.4509C49.7803 24.7622 49.2332 25.5477 49.2332 26.4249V40.7081V95.9377C49.2332 107.761 57.8681 117.624 69.2187 119.663V128.201C69.2187 129.367 70.1729 130.313 71.3501 130.313C72.5273 130.313 73.4815 129.367 73.4815 128.201V120.049C73.512 120.049 73.5421 120.05 73.5724 120.05H81.2141C81.2446 120.05 81.2749 120.049 81.3052 120.049V128.201C81.3052 129.367 82.2595 130.313 83.4367 130.313C84.6139 130.313 85.5681 129.367 85.5681 128.201V119.663C96.9186 117.624 105.554 107.761 105.554 95.9377V40.7081V26.4249C105.554 25.5479 105.007 24.7622 104.179 24.4509ZM53.4962 31.9849L59.4196 38.5966H53.4962V31.9849ZM101.291 95.9377C101.291 106.905 92.2846 115.826 81.2145 115.826H73.5728C62.5024 115.826 53.4964 106.904 53.4964 95.9377V42.8197H101.291V95.9377ZM101.291 38.5966H95.3675L101.291 31.9849V38.5966Z" fill="white"/>
<path d="M86.966 51.561C82.9782 51.5612 79.4497 53.5361 77.317 56.5486C75.1848 53.5363 71.6559 51.5614 67.6681 51.5614C61.1722 51.5614 55.8875 56.7966 55.8875 63.2318C55.8875 69.6669 61.1722 74.9023 67.6681 74.9023C68.1471 74.9023 68.6185 74.8704 69.0827 74.8151L75.8034 81.5289C76.2036 81.9289 76.7484 82.1535 77.3168 82.1535C77.3183 82.1535 77.3198 82.1535 77.3212 82.1535C77.8911 82.1523 78.4368 81.925 78.8366 81.5223L85.5008 74.8085C85.9813 74.8679 86.4695 74.9021 86.9658 74.9021C93.4616 74.9021 98.7464 69.6667 98.7464 63.2315C98.7466 56.7962 93.4619 51.561 86.966 51.561ZM67.6685 70.6789C63.5231 70.6789 60.1507 67.338 60.1507 63.2313C60.1507 59.1251 63.5231 55.7842 67.6685 55.7842C71.8135 55.7842 75.1858 59.1251 75.1858 63.2313C75.186 67.338 71.8135 70.6789 67.6685 70.6789ZM77.3108 77.0368L73.5863 73.316C75.0644 72.4614 76.338 71.2981 77.3173 69.9147C78.2903 71.2894 79.5538 72.4469 81.02 73.2999L77.3108 77.0368ZM86.966 70.6789C82.821 70.6789 79.4487 67.338 79.4487 63.2313C79.4487 59.1251 82.821 55.7842 86.966 55.7842C91.1112 55.7842 94.4838 59.1251 94.4838 63.2313C94.4838 67.338 91.1114 70.6789 86.966 70.6789Z" fill="white"/>
<path d="M67.6682 57.7745C64.6307 57.7745 62.1594 60.2227 62.1594 63.2317C62.1594 66.2406 64.6307 68.6888 67.6682 68.6888C70.7056 68.6888 73.1768 66.2406 73.1768 63.2317C73.1768 60.2227 70.7058 57.7745 67.6682 57.7745ZM67.6682 64.4658C66.9813 64.4658 66.4225 63.9122 66.4225 63.2319C66.4225 62.5516 66.9813 61.998 67.6682 61.998C68.3552 61.998 68.9138 62.5516 68.9138 63.2319C68.9138 63.9122 68.3552 64.4658 67.6682 64.4658Z" fill="white"/>
<path d="M86.9661 57.7745C83.9288 57.7745 81.4575 60.2227 81.4575 63.2317C81.4575 66.2406 83.9288 68.6888 86.9661 68.6888C90.0035 68.6888 92.4747 66.2406 92.4747 63.2317C92.4747 60.2227 90.0035 57.7745 86.9661 57.7745ZM86.9661 64.4656C86.2794 64.4656 85.7206 63.912 85.7206 63.2317C85.7206 62.5513 86.2794 61.9977 86.9661 61.9977C87.6528 61.9977 88.2117 62.5513 88.2117 63.2317C88.2119 63.9122 87.653 64.4656 86.9661 64.4656Z" fill="white"/>
<path d="M96.6153 78.6227C95.4381 78.6227 94.4839 79.568 94.4839 80.7342V81.6141C94.4839 82.7803 95.4381 83.7256 96.6153 83.7256C97.7925 83.7256 98.7467 82.7803 98.7467 81.6141V80.7342C98.7467 79.568 97.7925 78.6227 96.6153 78.6227Z" fill="white"/>
<path d="M96.6153 85.8921C95.4381 85.8921 94.4839 86.8374 94.4839 88.0036V97.8912C94.4839 99.0574 95.4381 100.003 96.6153 100.003C97.7925 100.003 98.7467 99.0574 98.7467 97.8912V88.0038C98.7467 86.8376 97.7925 85.8921 96.6153 85.8921Z" fill="white"/>
<defs>
<radialGradient id="paint0_radial_277_549" cx="0" cy="0" r="1" gradientUnits="userSpaceOnUse" gradientTransform="translate(16.8921 9.58249) rotate(46.787) scale(181.8 229.039)">
<stop stop-color="#FF8469"/>
<stop offset="1" stop-color="#DA52BB"/>
</radialGradient>
</defs>
</svg>
