<svg width="154" height="154" viewBox="0 0 154 154" fill="none" xmlns="http://www.w3.org/2000/svg">
<path fill-rule="evenodd" clip-rule="evenodd" d="M0.729858 39.0475V115.579C0.729858 136.696 17.8665 153.856 39.0073 153.856H115.538C136.655 153.856 153.816 136.696 153.816 115.579V39.0475C153.816 17.9305 136.655 0.77002 115.538 0.77002H39.0073C17.8665 0.77002 0.729858 17.9305 0.729858 39.0475Z" fill="url(#paint0_radial_277_576)"/>
<path d="M110.105 110.18C110.105 110.801 110.292 111.408 110.642 111.925C110.992 112.441 111.49 112.844 112.073 113.081C112.655 113.319 113.296 113.381 113.914 113.26C114.533 113.139 115.1 112.84 115.546 112.4C115.992 111.961 116.296 111.402 116.419 110.792C116.542 110.183 116.478 109.552 116.237 108.978C115.996 108.404 115.587 107.913 115.063 107.568C114.539 107.223 113.923 107.039 113.292 107.039C112.447 107.039 111.636 107.37 111.038 107.959C110.441 108.548 110.105 109.347 110.105 110.18ZM94.1673 113.32C93.5369 113.32 92.9206 113.136 92.3965 112.791C91.8723 112.446 91.4637 111.955 91.2225 111.382C90.9812 110.808 90.9181 110.176 91.0411 109.567C91.1641 108.958 91.4677 108.398 91.9134 107.959C92.3592 107.52 92.9272 107.221 93.5455 107.099C94.1638 106.978 94.8047 107.04 95.3871 107.278C95.9696 107.516 96.4674 107.918 96.8176 108.435C97.1679 108.951 97.3548 109.559 97.3548 110.18C97.3548 111.013 97.019 111.811 96.4212 112.4C95.8235 112.989 95.0127 113.32 94.1673 113.32ZM75.9118 111.216C76.4724 111.469 77.0813 111.6 77.6978 111.602C78.6696 111.601 79.61 111.264 80.3548 110.649V121.695C80.358 124.471 81.4785 127.132 83.4704 129.094C85.4622 131.057 88.1629 132.161 90.9798 132.164H116.48C119.297 132.161 121.997 131.057 123.989 129.094C125.981 127.132 127.102 124.471 127.105 121.695V110.649C127.85 111.264 128.79 111.601 129.762 111.602C130.378 111.601 130.987 111.469 131.548 111.216C132.421 110.838 133.138 110.177 133.578 109.343C134.019 108.509 134.157 107.552 133.97 106.63L129.609 83.7126C129.503 83.1514 129.28 82.6177 128.957 82.1442C128.633 81.6708 128.214 81.2675 127.726 80.9593C127.238 80.6511 126.692 80.4445 126.12 80.352C125.548 80.2596 124.963 80.2833 124.401 80.4218L109.843 84.0078H97.6166L83.0586 80.4218C82.4964 80.2833 81.9115 80.2596 81.3397 80.352C80.7679 80.4444 80.2214 80.651 79.7336 80.9592C79.2458 81.2674 78.8272 81.6706 78.5034 82.144C78.1796 82.6174 77.9574 83.1511 77.8506 83.7122L73.4893 106.63C73.3027 107.552 73.4411 108.509 73.8816 109.343C74.3222 110.177 75.0384 110.838 75.9118 111.216ZM84.6048 105.479L98.3878 88.1953H109.072L122.855 105.479V121.695C122.853 123.361 122.181 124.957 120.986 126.135C119.79 127.312 118.17 127.975 116.48 127.977H105.855V124.656L109.483 121.082C109.881 120.689 110.105 120.157 110.105 119.601C110.105 119.046 109.881 118.514 109.482 118.121C109.084 117.728 108.543 117.508 107.98 117.508C107.416 117.508 106.876 117.728 106.477 118.121L103.73 120.828L100.983 118.121C100.584 117.728 100.044 117.508 99.4799 117.508C98.9163 117.508 98.3758 117.728 97.9773 118.121C97.5787 118.514 97.3548 119.046 97.3548 119.601C97.3548 120.157 97.5786 120.689 97.9771 121.082L101.605 124.656V127.977H90.9798C89.2897 127.975 87.6693 127.312 86.4742 126.135C85.279 124.957 84.6068 123.361 84.6048 121.695V105.479Z" fill="white"/>
<path d="M33.8562 44.2592C32.9833 44.2592 32.2762 44.9664 32.2762 45.839C32.2762 46.7113 32.9833 47.4183 33.8562 47.4183C34.7284 47.4183 35.436 46.7114 35.436 45.839C35.436 44.9663 34.7285 44.2592 33.8562 44.2592Z" fill="white"/>
<path d="M17.3081 67.5688C18.4071 65.5012 19.6522 63.157 19.6522 59.4784C19.6522 53.3241 16.2386 51.159 16.0996 51.074C15.5946 50.7752 15.4286 50.1235 15.7274 49.6185C16.0269 49.1126 16.6792 48.9468 17.1836 49.2456C17.371 49.3571 21.7773 52.0514 21.7773 59.4784C21.7773 63.6868 20.34 66.3922 19.1854 68.5663C18.3574 70.1226 17.7045 71.3531 17.7045 72.7596C17.7045 73.7673 17.9238 74.4949 18.338 74.8664C18.76 75.2441 19.3113 75.1881 19.3217 75.1881C19.3722 75.1805 19.424 75.177 19.4753 75.177H23.3862C22.931 74.4645 22.6626 73.622 22.6626 72.7151V24.815C22.6626 24.3381 22.9808 23.9195 23.4409 23.7912C23.8994 23.6619 24.3886 23.8572 24.6354 24.2654L29.8248 32.8552C31.4171 32.8249 36.096 32.7884 50.1024 32.7884C53.0764 32.7884 54.5484 32.7905 55.2921 32.7958L60.0726 23.5909C60.2987 23.1558 60.7951 22.9314 61.2674 23.0483C61.7437 23.1645 62.0786 23.5909 62.0786 24.0803V72.7138C62.0786 75.2428 60.0217 77.3007 57.4921 77.3007H41.2559H27.2489H19.5334C19.4636 77.3069 19.3647 77.3132 19.2415 77.3132C18.722 77.3132 17.7875 77.1976 16.9644 76.4872C16.0458 75.6931 15.5795 74.4391 15.5795 72.7581C15.5793 70.8233 16.4185 69.2421 17.3081 67.5688ZM50.8864 49.5431C52.929 49.5431 54.5909 47.8816 54.5909 45.8389C54.5909 43.796 52.9283 42.1341 50.8864 42.1341C48.8441 42.1341 47.1819 43.796 47.1819 45.8389C47.1819 47.8816 48.8434 49.5431 50.8864 49.5431ZM40.5116 53.8118H41.2963L41.3821 55.2879C41.4146 55.8525 41.8829 56.2889 42.4418 56.2889C42.4623 56.2889 42.4833 56.2882 42.5041 56.2874C43.0897 56.2528 43.5375 55.75 43.5026 55.1654L43.4241 53.8125H44.2302C44.8166 53.8125 45.2929 53.3372 45.2929 52.75C45.2929 52.1626 44.8166 51.6874 44.2302 51.6874H40.5115C39.9249 51.6874 39.449 52.1626 39.449 52.75C39.4492 53.3372 39.925 53.8118 40.5116 53.8118ZM33.8561 49.5431C35.8987 49.5431 37.5609 47.8816 37.5609 45.8389C37.5609 43.796 35.8981 42.1341 33.8561 42.1341C31.8127 42.1341 30.1499 43.796 30.1499 45.8389C30.15 47.8816 31.8127 49.5431 33.8561 49.5431Z" fill="white"/>
<path d="M50.8865 47.4182C50.0141 47.4182 49.3069 46.711 49.3069 45.8386C49.3069 44.9662 50.0141 44.259 50.8865 44.259C51.7589 44.259 52.4661 44.9662 52.4661 45.8386C52.4661 46.711 51.7589 47.4182 50.8865 47.4182Z" fill="white"/>
<defs>
<radialGradient id="paint0_radial_277_576" cx="0" cy="0" r="1" gradientUnits="userSpaceOnUse" gradientTransform="translate(15.8771 10.4937) rotate(47.1906) scale(181.402 228.537)">
<stop stop-color="#4BDCED"/>
<stop offset="1" stop-color="#00B4F5"/>
</radialGradient>
</defs>
</svg>
