<svg width="154" height="154" viewBox="0 0 154 154" fill="none" xmlns="http://www.w3.org/2000/svg">
<path fill-rule="evenodd" clip-rule="evenodd" d="M0.729858 38.9442V115.475C0.729858 136.592 17.8665 153.753 39.0073 153.753H115.538C136.655 153.753 153.816 136.592 153.816 115.475V38.9442C153.816 17.8273 136.655 0.666748 115.538 0.666748H39.0073C17.8665 0.666748 0.729858 17.8273 0.729858 38.9442Z" fill="url(#paint0_radial_277_598)"/>
<path d="M69.1291 28.1719C67.8486 28.2486 66.7905 28.9463 65.9394 31.1162C65.487 32.2664 64.5286 35.0957 63.6085 37.8024C63.1407 39.1749 62.7037 40.4247 62.3817 41.3601C62.351 41.4521 62.397 41.5671 62.3817 41.6668C62.3663 41.7052 62.2743 41.7512 62.259 41.7895L62.075 42.3416C64.6589 43.139 66.5681 43.9288 66.7368 43.9978C72.5719 46.206 83.8662 51.3663 93.5427 61.0504C103.787 71.2943 109.054 83.5931 110.841 88.4083C110.879 88.4927 111.393 90.0109 112.129 92.5795C112.144 92.5718 112.183 92.5872 112.19 92.5795C113.294 92.2268 116.453 91.1073 119.122 90.1872C120.686 89.6505 122.058 89.1904 122.741 88.9604C124.405 88.4007 125.463 87.5726 125.992 86.3841C126.506 85.2493 126.49 83.9151 125.869 82.4583C125.585 81.7912 125.263 80.9478 124.888 80.0047C122.196 73.2725 116.561 59.2869 105.933 48.6596C94.1944 36.9129 78.8439 30.4875 71.6441 28.5399C70.7086 28.2869 69.8959 28.1259 69.1291 28.1719ZM60.5414 45.9607L28.3376 123.556C28.0309 124.285 28.2073 125.144 28.767 125.703C29.1427 126.079 29.6641 126.255 30.1779 126.255C30.4309 126.255 30.6762 126.232 30.9139 126.133L108.51 94.0517C107.758 91.3987 107.168 89.8422 107.16 89.8192C105.458 85.211 100.482 73.5102 90.7823 63.8108C81.2822 54.303 69.7655 49.3191 65.2647 47.6169C65.2033 47.5939 63.1791 46.7581 60.5414 45.9607ZM61.5842 59.5169C67.0052 59.5169 71.3987 63.9104 71.3987 69.3314C71.3987 74.7524 67.0052 79.1459 61.5842 79.1459C57.9345 79.1459 54.8138 77.1293 53.1192 74.1773L59.0079 59.885C59.8207 59.6626 60.7025 59.5169 61.5842 59.5169ZM89.0648 71.2943C92.3158 71.2943 94.9535 73.932 94.9535 77.183C94.9535 78.9849 94.1407 80.5797 92.8679 81.6609H92.8066C94.1101 83.064 94.9535 84.9349 94.9535 86.9975C94.9535 91.3373 91.4417 94.8491 87.1019 94.8491C82.7621 94.8491 79.2503 91.3373 79.2503 86.9975C79.2503 83.7771 81.2055 81.0321 83.9735 79.8207L83.7895 79.7593C83.4061 78.9849 83.1761 78.1108 83.1761 77.183C83.1761 73.932 85.8137 71.2943 89.0648 71.2943ZM69.4358 90.9233C73.7757 90.9233 77.2874 94.435 77.2874 98.7749C77.2874 100.454 76.72 102.034 75.8152 103.314L68.0863 106.504C64.3906 105.86 61.5842 102.655 61.5842 98.7749C61.5842 94.435 65.096 90.9233 69.4358 90.9233ZM45.881 94.8491C49.1321 94.8491 51.7697 97.4867 51.7697 100.738C51.7697 103.989 49.1321 106.626 45.881 106.626C43.7265 106.626 41.8786 105.476 40.8511 103.743L44.4089 95.0331C44.8766 94.9104 45.375 94.8491 45.881 94.8491Z" fill="white"/>
<defs>
<radialGradient id="paint0_radial_277_598" cx="0" cy="0" r="1" gradientUnits="userSpaceOnUse" gradientTransform="translate(15.8771 10.3905) rotate(47.1906) scale(181.402 228.537)">
<stop stop-color="#4BDCED"/>
<stop offset="1" stop-color="#00B4F5"/>
</radialGradient>
</defs>
</svg>
