<svg width="155" height="154" viewBox="0 0 155 154" fill="none" xmlns="http://www.w3.org/2000/svg">
<path fill-rule="evenodd" clip-rule="evenodd" d="M0.924194 38.7775V115.309C0.924194 136.426 18.0609 153.586 39.2017 153.586H115.733C136.85 153.586 154.01 136.426 154.01 115.309V38.7775C154.01 17.6605 136.85 0.5 115.733 0.5H39.2017C18.0609 0.5 0.924194 17.6605 0.924194 38.7775Z" fill="url(#paint0_radial_277_588)"/>
<path fill-rule="evenodd" clip-rule="evenodd" d="M110.467 104.855H44.4673C42.9465 104.855 41.7173 106.099 41.7173 107.637C41.7173 109.175 42.9465 110.418 44.4673 110.418H110.467C111.988 110.418 113.217 109.175 113.217 107.637C113.217 106.099 111.988 104.855 110.467 104.855ZM118.717 93.7305H36.2173C34.6965 93.7305 33.4673 94.9737 33.4673 96.5117C33.4673 98.0498 34.6965 99.293 36.2173 99.293H118.717C120.238 99.293 121.467 98.0498 121.467 96.5117C121.467 94.9737 120.238 93.7305 118.717 93.7305ZM120.026 88.168C120.934 84.608 121.467 80.8922 121.467 77.043C121.467 52.4678 101.769 32.543 77.4673 32.543C53.1655 32.543 33.4673 52.4678 33.4673 77.043C33.4673 80.8922 34.0007 84.608 34.9082 88.168H120.026ZM91.2173 115.98H63.7173C62.1965 115.98 60.9673 117.224 60.9673 118.762C60.9673 120.3 62.1965 121.543 63.7173 121.543H91.2173C92.738 121.543 93.9673 120.3 93.9673 118.762C93.9673 117.224 92.738 115.98 91.2173 115.98Z" fill="white"/>
<defs>
<radialGradient id="paint0_radial_277_588" cx="0" cy="0" r="1" gradientUnits="userSpaceOnUse" gradientTransform="translate(16.9658 9.31247) rotate(46.787) scale(181.8 229.039)">
<stop stop-color="#FF8469"/>
<stop offset="1" stop-color="#DA52BB"/>
</radialGradient>
</defs>
</svg>
