<svg width="154" height="154" viewBox="0 0 154 154" fill="none" xmlns="http://www.w3.org/2000/svg">
<path fill-rule="evenodd" clip-rule="evenodd" d="M-0.00012207 39.1914V115.723C-0.00012207 136.839 17.1365 154 38.2773 154H114.808C135.925 154 153.086 136.839 153.086 115.723V39.1914C153.086 18.0745 135.925 0.91394 114.808 0.91394H38.2773C17.1365 0.91394 -0.00012207 18.0745 -0.00012207 39.1914Z" fill="url(#paint0_radial_401_75)"/>
<path d="M55.9456 18.3838H93.3367L54.522 133.388C54.1234 134.57 53.3639 135.597 52.3506 136.325C51.3372 137.052 50.1211 137.444 48.8736 137.444H19.7749C18.8299 137.443 17.8985 137.218 17.0576 136.787C16.2167 136.356 15.4905 135.731 14.939 134.963C14.3876 134.196 14.0269 133.308 13.8869 132.373C13.7469 131.438 13.8316 130.484 14.1339 129.589L50.2972 22.4386C50.696 21.2565 51.4555 20.2293 52.4688 19.5016C53.482 18.7738 54.6981 18.3823 55.9456 18.382V18.3838Z" fill="url(#paint1_linear_401_75)"/>
<path d="M110.28 95.521H50.9871C50.4357 95.5199 49.8968 95.685 49.4407 95.9948C48.9846 96.3046 48.6324 96.7446 48.4301 97.2575C48.2278 97.7704 48.1847 98.3324 48.3066 98.8701C48.4284 99.4078 48.7095 99.8964 49.1131 100.272L87.2131 135.834C88.3224 136.869 89.7831 137.444 91.3001 137.444H124.874L110.28 95.521Z" fill="#0078D4"/>
<path d="M55.9454 18.3838C54.6842 18.3791 53.4546 18.7777 52.4361 19.5214C51.4176 20.2651 50.6635 21.315 50.2841 22.5177L14.1787 129.491C13.8563 130.39 13.7552 131.353 13.8837 132.299C14.0123 133.245 14.3668 134.146 14.9172 134.926C15.4677 135.706 16.1979 136.342 17.0461 136.78C17.8943 137.219 18.8356 137.446 19.7903 137.444H49.6407C50.7524 137.245 51.7915 136.755 52.6518 136.023C53.5121 135.292 54.1628 134.345 54.5374 133.279L61.7371 112.06L87.4565 136.048C88.534 136.939 89.8858 137.432 91.2843 137.444H124.734L110.063 95.5207L67.2973 95.5308L93.4716 18.3838H55.9454Z" fill="url(#paint2_linear_401_75)"/>
<path d="M103.703 22.4331C103.305 21.2527 102.547 20.227 101.535 19.5005C100.522 18.774 99.308 18.3835 98.0622 18.3838H56.3911C57.6367 18.3839 58.8508 18.7747 59.8626 19.5011C60.8744 20.2275 61.6329 21.253 62.0313 22.4331L98.1955 129.588C98.4982 130.483 98.5833 131.438 98.4437 132.373C98.304 133.308 97.9436 134.196 97.3924 134.964C96.8411 135.732 96.1148 136.358 95.2737 136.789C94.4325 137.221 93.5007 137.446 92.5553 137.445H134.228C135.173 137.445 136.105 137.219 136.945 136.787C137.786 136.356 138.512 135.73 139.063 134.962C139.614 134.195 139.974 133.307 140.114 132.372C140.254 131.438 140.169 130.483 139.868 129.588L103.703 22.4331Z" fill="url(#paint3_linear_401_75)"/>
<defs>
<radialGradient id="paint0_radial_401_75" cx="0" cy="0" r="1" gradientUnits="userSpaceOnUse" gradientTransform="translate(76.5429 0.91394) rotate(90) scale(153.086)">
<stop stop-color="#3E3E43"/>
<stop offset="1" stop-color="#1E1E23"/>
</radialGradient>
<linearGradient id="paint1_linear_401_75" x1="69.574" y1="27.2066" x2="30.7428" y2="141.922" gradientUnits="userSpaceOnUse">
<stop stop-color="#114A8B"/>
<stop offset="1" stop-color="#0669BC"/>
</linearGradient>
<linearGradient id="paint2_linear_401_75" x1="81.7033" y1="80.6672" x2="72.7215" y2="83.7037" gradientUnits="userSpaceOnUse">
<stop stop-opacity="0.3"/>
<stop offset="0.071" stop-opacity="0.2"/>
<stop offset="0.321" stop-opacity="0.1"/>
<stop offset="0.623" stop-opacity="0.05"/>
<stop offset="1" stop-opacity="0"/>
</linearGradient>
<linearGradient id="paint3_linear_401_75" x1="76.7635" y1="23.8603" x2="119.389" y2="137.421" gradientUnits="userSpaceOnUse">
<stop stop-color="#3CCBF4"/>
<stop offset="1" stop-color="#2892DF"/>
</linearGradient>
</defs>
</svg>
