<svg width="154" height="154" viewBox="0 0 154 154" fill="none" xmlns="http://www.w3.org/2000/svg">
<path fill-rule="evenodd" clip-rule="evenodd" d="M-0.00012207 38.5691V115.1C-0.00012207 136.217 17.1366 153.378 38.2773 153.378H114.808C135.925 153.378 153.086 136.217 153.086 115.1V38.5691C153.086 17.4521 135.925 0.291626 114.808 0.291626H38.2773C17.1366 0.291626 -0.00012207 17.4521 -0.00012207 38.5691Z" fill="url(#paint0_radial_401_59)"/>
<path d="M128.4 43.9916L80.1 16.1916C79.3 15.6916 78.2 15.4916 77 15.4916C75.8 15.4916 74.7 15.7916 73.9 16.1916L25.9 44.0916C24.2 45.0916 23 47.5916 23 49.4916V105.192C23 106.292 23.2 107.592 24 108.692L130.8 46.6916C130.2 45.4916 129.3 44.5916 128.4 43.9916Z" fill="#9B4F96"/>
<path d="M23.7002 108.592C24.2002 109.392 24.9002 110.092 25.6002 110.492L73.8002 138.392C74.6002 138.892 75.7002 139.092 76.9002 139.092C78.1002 139.092 79.2002 138.792 80.0002 138.392L128 110.492C129.7 109.492 130.9 106.992 130.9 105.092V49.3917C130.9 48.4917 130.8 47.4917 130.3 46.5917L23.7002 108.592Z" fill="#68217A"/>
<path d="M98.3 89.3916C94.1 96.7916 86.1 101.792 77 101.792C63.5 101.792 52.5 90.7916 52.5 77.2916C52.5 63.7916 63.5 52.7916 77 52.7916C86.1 52.7916 94.1 57.7916 98.3 65.2916L111.3 57.7916C104.5 45.8916 91.7 37.7916 77 37.7916C55.2 37.7916 37.5 55.4916 37.5 77.2916C37.5 99.0916 55.2 116.792 77 116.792C91.6 116.792 104.4 108.792 111.2 96.9916L98.3 89.3916ZM110 79.4916L110.9 75.1916H106.7V70.4916H111.8L113 64.2916H117.9L116.7 70.3916H120.5L121.7 64.2916H126.5L125.3 70.3916H127.7V75.0916H124.4L123.5 79.3916H127.7V84.0916H122.6L121.4 90.0916H116.5L117.7 84.0916H113.9L112.7 90.0916H107.9L109.1 84.0916H106.7V79.3916H110V79.4916ZM114.8 79.4916H118.6L119.5 75.1916H115.7L114.8 79.4916Z" fill="white"/>
<defs>
<radialGradient id="paint0_radial_401_59" cx="0" cy="0" r="1" gradientUnits="userSpaceOnUse" gradientTransform="translate(76.5429 0.291626) rotate(90) scale(153.086)">
<stop stop-color="#3E3E43"/>
<stop offset="1" stop-color="#1E1E23"/>
</radialGradient>
</defs>
</svg>
