<svg width="154" height="154" viewBox="0 0 154 154" fill="none" xmlns="http://www.w3.org/2000/svg">
<path fill-rule="evenodd" clip-rule="evenodd" d="M0.0858154 38.3634V114.895C0.0858154 136.011 17.2225 153.172 38.3633 153.172H114.894C136.011 153.172 153.172 136.011 153.172 114.895V38.3634C153.172 17.2464 136.011 0.0859375 114.894 0.0859375H38.3633C17.2225 0.0859375 0.0858154 17.2464 0.0858154 38.3634Z" fill="url(#paint0_radial_401_161)"/>
<path d="M36.1361 122.51L27.0247 20.3112H127.147L118.027 122.494L77.0252 133.862L36.1361 122.51Z" fill="#1572B6"/>
<path d="M77.0869 125.173L110.219 115.988L118.013 28.6669H77.0869V125.173Z" fill="#33A9DC"/>
<path d="M77.0869 65.6934H93.6731L94.8186 52.8582H77.0869V40.3239H108.517L108.217 43.6869L105.135 78.2278H77.0869V65.6934Z" fill="white"/>
<path d="M77.1611 98.246L77.1058 98.2623L63.1468 94.4932L62.2541 84.4963H49.6736L51.429 104.177L77.104 111.303L77.1611 111.287V98.246Z" fill="#EBEBEB"/>
<path d="M92.6073 77.6976L91.0975 94.4832L77.1177 98.2568V111.298L102.813 104.176L103.002 102.059L105.182 77.6976H92.6073Z" fill="white"/>
<path d="M77.1294 40.3239V52.8582H46.8534L46.6024 50.0416L46.0314 43.6869L45.7314 40.3239H77.1294ZM77.0868 65.6952V78.2296H63.3036L63.0526 75.413L62.4808 69.0583L62.1817 65.6952H77.0868Z" fill="#EBEBEB"/>
<defs>
<radialGradient id="paint0_radial_401_161" cx="0" cy="0" r="1" gradientUnits="userSpaceOnUse" gradientTransform="translate(76.6288 0.0859375) rotate(90) scale(153.086)">
<stop stop-color="#3E3E43"/>
<stop offset="1" stop-color="#1E1E23"/>
</radialGradient>
</defs>
</svg>
