<svg width="154" height="154" viewBox="0 0 154 154" fill="none" xmlns="http://www.w3.org/2000/svg">
<path fill-rule="evenodd" clip-rule="evenodd" d="M0.25769 38.4496V114.981C0.25769 136.098 17.3944 153.258 38.5352 153.258H115.066C136.183 153.258 153.344 136.098 153.344 114.981V38.4496C153.344 17.3326 136.183 0.172119 115.066 0.172119H38.5352C17.3944 0.172119 0.25769 17.3326 0.25769 38.4496Z" fill="url(#paint0_radial_401_74)"/>
<path fill-rule="evenodd" clip-rule="evenodd" d="M77.2576 18.2751C43.9106 18.2751 16.8696 45.3101 16.8696 78.6631C16.8696 105.345 34.1726 127.98 58.1666 135.966C61.1836 136.526 62.2916 134.656 62.2916 133.061C62.2916 131.621 62.2356 126.864 62.2096 121.818C45.4096 125.471 41.8646 114.693 41.8646 114.693C39.1176 107.713 35.1596 105.857 35.1596 105.857C29.6796 102.109 35.5726 102.187 35.5726 102.187C41.6356 102.612 44.8296 108.41 44.8296 108.41C50.2156 117.64 58.9566 114.972 62.4026 113.43C62.9446 109.527 64.5096 106.862 66.2366 105.354C52.8236 103.829 38.7226 98.6501 38.7226 75.5111C38.7226 68.9181 41.0826 63.5311 44.9456 59.3011C44.3176 57.7811 42.2506 51.6391 45.5296 43.3211C45.5296 43.3211 50.5996 41.6981 62.1396 49.5111C66.9576 48.1721 72.1246 47.4991 77.2576 47.4761C82.3876 47.4991 87.5576 48.1701 92.3846 49.5091C103.911 41.6961 108.975 43.3191 108.975 43.3191C112.262 51.6361 110.195 57.7791 109.568 59.2991C113.44 63.5291 115.783 68.9161 115.783 75.5091C115.783 98.7031 101.656 103.809 88.2086 105.305C90.3756 107.179 92.3056 110.855 92.3056 116.488C92.3056 124.568 92.2356 131.071 92.2356 133.06C92.2356 134.667 93.3236 136.55 96.3836 135.957C120.364 127.963 137.647 105.335 137.647 78.6631C137.646 45.3121 110.608 18.2751 77.2576 18.2751Z" fill="white"/>
<path d="M39.7414 104.978C39.6084 105.278 39.1364 105.368 38.7064 105.163C38.2664 104.967 38.0214 104.558 38.1634 104.257C38.2934 103.947 38.7664 103.862 39.2034 104.069C39.6434 104.266 39.8934 104.679 39.7404 104.979L39.7414 104.978ZM42.1874 107.707C41.9004 107.974 41.3374 107.85 40.9554 107.427C40.5594 107.007 40.4854 106.444 40.7784 106.173C41.0764 105.907 41.6224 106.033 42.0184 106.453C42.4124 106.879 42.4904 107.437 42.1884 107.708L42.1874 107.707ZM44.5694 111.184C44.1994 111.442 43.5934 111.201 43.2194 110.664C42.8494 110.126 42.8494 109.481 43.2294 109.224C43.6024 108.966 44.1994 109.199 44.5794 109.731C44.9474 110.276 44.9474 110.922 44.5694 111.184ZM47.8304 114.545C47.5004 114.91 46.7944 114.812 46.2784 114.315C45.7514 113.828 45.6044 113.135 45.9354 112.771C46.2714 112.405 46.9804 112.507 47.4994 113.001C48.0264 113.487 48.1854 114.181 47.8324 114.544L47.8304 114.545ZM52.3304 116.496C52.1834 116.969 51.5054 117.184 50.8204 116.982C50.1374 116.775 49.6904 116.222 49.8304 115.744C49.9704 115.267 50.6534 115.044 51.3424 115.259C52.0254 115.465 52.4724 116.015 52.3304 116.496ZM57.2734 116.857C57.2904 117.355 56.7104 117.767 55.9934 117.777C55.2704 117.794 54.6854 117.39 54.6784 116.9C54.6784 116.397 55.2464 115.99 55.9684 115.976C56.6854 115.963 57.2744 116.363 57.2744 116.856L57.2734 116.857ZM61.8714 116.075C61.9574 116.56 61.4584 117.059 60.7454 117.192C60.0454 117.322 59.3954 117.02 59.3054 116.539C59.2194 116.041 59.7274 115.542 60.4274 115.413C61.1414 115.29 61.7814 115.582 61.8714 116.075Z" fill="white"/>
<defs>
<radialGradient id="paint0_radial_401_74" cx="0" cy="0" r="1" gradientUnits="userSpaceOnUse" gradientTransform="translate(76.8007 0.172119) rotate(90) scale(153.086)">
<stop stop-color="#3E3E43"/>
<stop offset="1" stop-color="#1E1E23"/>
</radialGradient>
</defs>
</svg>
