<svg width="154" height="154" viewBox="0 0 154 154" fill="none" xmlns="http://www.w3.org/2000/svg">
<path fill-rule="evenodd" clip-rule="evenodd" d="M-0.00012207 38.3634V114.895C-0.00012207 136.011 17.1365 153.172 38.2773 153.172H114.808C135.925 153.172 153.086 136.011 153.086 114.895V38.3634C153.086 17.2464 135.925 0.0859375 114.808 0.0859375H38.2773C17.1365 0.0859375 -0.00012207 17.2464 -0.00012207 38.3634Z" fill="url(#paint0_radial_401_110)"/>
<path d="M36.2523 122.286L27.1853 20.5912H126.815L117.738 122.271L76.9393 133.581L36.2523 122.286Z" fill="#E44D26"/>
<path d="M77 124.936L109.968 115.795L117.724 28.906H77V124.936Z" fill="#F16529"/>
<path d="M77 66.6233H60.4953L59.3553 53.8506H77V41.3788H45.7244L46.0234 44.7247L49.0884 79.096H77V66.6233ZM77 99.0154L76.9447 99.0308L63.0546 95.2789L62.1674 85.3328H49.6457L51.393 104.916L76.9429 112.008L77 111.993V99.0154Z" fill="#EBEBEB"/>
<path d="M76.9565 66.6233V79.096H92.3148L90.8675 95.2717L76.9565 99.0263V112.003L102.526 104.916L102.714 102.809L105.645 69.9728L105.948 66.6233H102.588H76.9565ZM76.9565 41.3788V53.8506H107.084L107.334 51.0485L107.903 44.7247L108.201 41.3788H76.9565Z" fill="white"/>
<defs>
<radialGradient id="paint0_radial_401_110" cx="0" cy="0" r="1" gradientUnits="userSpaceOnUse" gradientTransform="translate(76.5429 0.0859375) rotate(90) scale(153.086)">
<stop stop-color="#3E3E43"/>
<stop offset="1" stop-color="#1E1E23"/>
</radialGradient>
</defs>
</svg>
