<svg width="154" height="154" viewBox="0 0 154 154" fill="none" xmlns="http://www.w3.org/2000/svg">
<path fill-rule="evenodd" clip-rule="evenodd" d="M0.171753 38.2775V114.809C0.171753 135.926 17.3084 153.086 38.4492 153.086H114.98C136.097 153.086 153.258 135.926 153.258 114.809V38.2775C153.258 17.1605 136.097 0 114.98 0H38.4492C17.3084 0 0.171753 17.1605 0.171753 38.2775Z" fill="url(#paint0_radial_401_58)"/>
<path d="M20.4478 20.276H133.896V133.725H20.4478V20.276Z" fill="#F0DB4F"/>
<path d="M124.611 106.667C123.78 101.491 120.406 97.1441 110.409 93.0904C106.936 91.4945 103.064 90.3518 101.911 87.72C101.501 86.1884 101.447 85.3257 101.706 84.3986C102.45 81.3899 106.041 80.4519 108.888 81.3146C110.721 81.9291 112.457 83.3419 113.504 85.5958C118.399 82.4257 118.389 82.4465 121.807 80.2679C120.556 78.3276 119.888 77.4323 119.069 76.6021C116.124 73.3134 112.112 71.6196 105.696 71.7492L102.354 72.1814C99.1512 72.9907 96.099 74.6718 94.3091 76.9257C88.9387 83.0193 90.4703 93.684 97.0052 98.073C103.443 102.905 112.901 104.004 114.109 108.523C115.284 114.055 110.043 115.845 104.834 115.209C100.995 114.411 98.8603 112.46 96.5521 108.912C92.3036 111.37 92.3036 111.37 87.9355 113.883C88.9713 116.147 90.0597 117.172 91.7961 119.134C100.014 127.47 120.579 127.06 124.267 114.444C124.417 114.01 125.41 111.121 124.611 106.667ZM82.1219 72.4171H71.5106L71.4671 99.8511C71.4671 105.686 71.7689 111.034 70.82 112.674C69.2676 115.898 65.2448 115.498 63.4114 114.873C61.5455 113.956 60.5966 112.652 59.4973 110.809C59.1956 110.279 58.969 109.87 58.8929 109.838L50.2654 115.121C51.7 118.066 53.8134 120.621 56.5203 122.282C60.564 124.709 65.9988 125.453 71.6828 124.148C75.3821 123.07 78.5739 120.838 80.245 117.44C82.6611 112.986 82.1427 107.595 82.121 101.632C82.1753 91.9033 82.1219 82.1765 82.1219 72.4171Z" fill="#323330"/>
<defs>
<radialGradient id="paint0_radial_401_58" cx="0" cy="0" r="1" gradientUnits="userSpaceOnUse" gradientTransform="translate(76.7148) rotate(90) scale(153.086)">
<stop stop-color="#3E3E43"/>
<stop offset="1" stop-color="#1E1E23"/>
</radialGradient>
</defs>
</svg>
