<svg width="154" height="154" viewBox="0 0 154 154" fill="none" xmlns="http://www.w3.org/2000/svg">
<path fill-rule="evenodd" clip-rule="evenodd" d="M-0.00012207 38.2775V114.809C-0.00012207 135.926 17.1365 153.086 38.2773 153.086H114.808C135.925 153.086 153.086 135.926 153.086 114.809V38.2775C153.086 17.1605 135.925 0 114.808 0H38.2773C17.1365 0 -0.00012207 17.1605 -0.00012207 38.2775Z" fill="url(#paint0_radial_401_56)"/>
<path d="M76.9999 88.4C83.2959 88.4 88.3999 83.296 88.3999 77C88.3999 70.7039 83.2959 65.6 76.9999 65.6C70.7038 65.6 65.5999 70.7039 65.5999 77C65.5999 83.296 70.7038 88.4 76.9999 88.4Z" fill="#61DAFB"/>
<path d="M120.3 58.2C118.1 57.4 115.8 56.6 113.4 55.9C114 53.5 114.5 51.1 114.9 48.8C117 35.6 114.7 26.3 108.3 22.7C106.4 21.6 104.3 21.1 101.9 21.1C94.8999 21.1 85.9999 26.3 76.9999 35C67.9999 26.3 59.0999 21.1 52.0999 21.1C49.6999 21.1 47.5999 21.6 45.6999 22.7C39.2999 26.4 36.9999 35.7 39.0999 48.8C39.4999 51.1 39.9999 53.5 40.5999 55.9C38.1999 56.6 35.8999 57.3 33.6999 58.2C21.1999 63 14.3999 69.6 14.3999 77C14.3999 84.4 21.2999 91 33.6999 95.8C35.8999 96.6 38.1999 97.4 40.5999 98.1C39.9999 100.5 39.4999 102.9 39.0999 105.2C36.9999 118.4 39.2999 127.7 45.6999 131.3C47.5999 132.4 49.6999 132.9 52.0999 132.9C59.1999 132.9 68.0999 127.7 76.9999 119C85.9999 127.7 94.8999 132.9 101.9 132.9C104.3 132.9 106.4 132.4 108.3 131.3C114.7 127.6 117 118.3 114.9 105.2C114.5 102.9 114 100.5 113.4 98.1C115.8 97.4 118.1 96.7 120.3 95.8C132.8 91 139.6 84.4 139.6 77C139.6 69.6 132.8 63 120.3 58.2ZM105.5 27.7C109.6 30.1 111 37.5 109.3 48C109 50.1 108.5 52.3 107.9 54.6C102.7 53.4 97.1999 52.6 91.3999 52.1C87.9999 47.3 84.4999 43 80.9999 39.1C88.3999 31.8 95.8999 26.8 102 26.8C103.3 26.8 104.5 27.1 105.5 27.7ZM94.2999 87C92.4999 90.2 90.3999 93.4 88.1999 96.6C84.4999 96.9 80.7999 97 76.9999 97C73.0999 97 69.3999 96.9 65.7999 96.6C63.5999 93.4 61.5999 90.2 59.7999 87C57.8999 83.7 56.0999 80.3 54.4999 77C56.0999 73.7 57.8999 70.3 59.7999 67C61.5999 63.8 63.6999 60.6 65.8999 57.4C69.5999 57.1 73.2999 57 77.0999 57C80.9999 57 84.6999 57.1 88.2999 57.4C90.4999 60.6 92.4999 63.8 94.2999 67C96.1999 70.3 97.9999 73.7 99.5999 77C97.8999 80.3 96.1999 83.6 94.2999 87ZM102.6 83.7C104.1 87.2 105.3 90.6 106.4 94C103 94.8 99.3999 95.4 95.5999 95.9C96.7999 94 98.0999 92 99.1999 89.9C100.4 87.8 101.5 85.7 102.6 83.7ZM76.9999 110.8C74.5999 108.2 72.2999 105.4 70.0999 102.5C72.3999 102.6 74.6999 102.7 76.9999 102.7C79.2999 102.7 81.5999 102.6 83.8999 102.5C81.6999 105.4 79.3999 108.2 76.9999 110.8ZM58.3999 95.8C54.5999 95.3 50.9999 94.7 47.5999 93.9C48.6999 90.6 49.8999 87.1 51.3999 83.6C52.4999 85.6 53.5999 87.7 54.7999 89.7C55.9999 91.9 57.1999 93.8 58.3999 95.8ZM51.3999 70.3C49.8999 66.8 48.6999 63.4 47.5999 60C50.9999 59.2 54.5999 58.6 58.3999 58.1C57.1999 60 55.8999 62 54.7999 64.1C53.5999 66.2 52.4999 68.3 51.3999 70.3ZM76.9999 43.2C79.3999 45.8 81.6999 48.6 83.8999 51.5C81.5999 51.4 79.2999 51.3 76.9999 51.3C74.6999 51.3 72.3999 51.4 70.0999 51.5C72.2999 48.6 74.5999 45.8 76.9999 43.2ZM99.1999 64.2L95.5999 58.2C99.3999 58.7 103 59.3 106.4 60.1C105.3 63.4 104.1 66.9 102.6 70.4C101.5 68.3 100.4 66.2 99.1999 64.2ZM44.6999 48C42.9999 37.5 44.3999 30.1 48.4999 27.7C49.4999 27.1 50.6999 26.8 51.9999 26.8C57.9999 26.8 65.4999 31.7 72.9999 39.1C69.4999 42.9 65.9999 47.3 62.5999 52.1C56.7999 52.6 51.2999 53.5 46.0999 54.6C45.4999 52.3 45.0999 50.1 44.6999 48ZM19.9999 77C19.9999 72.3 25.6999 67.3 35.6999 63.6C37.6999 62.8 39.8999 62.1 42.0999 61.5C43.6999 66.5 45.6999 71.8 48.0999 77.1C45.6999 82.4 43.5999 87.6 42.0999 92.6C28.2999 88.6 19.9999 82.6 19.9999 77ZM48.4999 126.3C44.3999 123.9 42.9999 116.5 44.6999 106C44.9999 103.9 45.4999 101.7 46.0999 99.4C51.2999 100.6 56.7999 101.4 62.5999 101.9C65.9999 106.7 69.4999 111 72.9999 114.9C65.5999 122.2 58.0999 127.2 51.9999 127.2C50.6999 127.2 49.4999 126.9 48.4999 126.3ZM109.3 106C111 116.5 109.6 123.9 105.5 126.3C104.5 126.9 103.3 127.2 102 127.2C95.9999 127.2 88.4999 122.3 80.9999 114.9C84.4999 111.1 87.9999 106.7 91.3999 101.9C97.1999 101.4 102.7 100.5 107.9 99.4C108.5 101.7 108.9 103.9 109.3 106ZM118.3 90.4C116.3 91.2 114.1 91.9 111.9 92.5C110.3 87.5 108.3 82.2 105.9 76.9C108.3 71.6 110.4 66.4 111.9 61.4C125.7 65.4 134 71.4 134 77C134 81.7 128.2 86.7 118.3 90.4Z" fill="#61DAFB"/>
<defs>
<radialGradient id="paint0_radial_401_56" cx="0" cy="0" r="1" gradientUnits="userSpaceOnUse" gradientTransform="translate(76.5429) rotate(90) scale(153.086)">
<stop stop-color="#3E3E43"/>
<stop offset="1" stop-color="#1E1E23"/>
</radialGradient>
</defs>
</svg>
