<svg width="154" height="154" viewBox="0 0 154 154" fill="none" xmlns="http://www.w3.org/2000/svg">
<path fill-rule="evenodd" clip-rule="evenodd" d="M0.0858154 38.2775V114.809C0.0858154 135.926 17.2225 153.086 38.3633 153.086H114.894C136.011 153.086 153.172 135.926 153.172 114.809V38.2775C153.172 17.1605 136.011 0 114.894 0H38.3633C17.2225 0 0.0858154 17.1605 0.0858154 38.2775Z" fill="url(#paint0_radial_401_57)"/>
<g clip-path="url(#clip0_401_57)">
<path d="M100.233 99.6031C91.7954 116.853 77.0204 128.459 57.4735 132.275C54.4765 133.009 51.3998 133.368 48.3142 133.344C37.0642 133.344 26.7517 128.656 21.7454 120.978C15.0235 110.75 12.736 89.0656 34.8985 73.025C35.3485 75.4718 36.2673 78.8281 36.8767 80.8156C32.526 84.0478 28.9649 88.2244 26.461 93.0312C22.336 101.131 22.7954 109.222 27.6798 116.703C31.0548 121.747 36.3985 124.812 43.2704 125.75C51.8536 126.836 60.561 125.197 68.161 121.062C80.0767 114.8 88.0173 107.319 93.211 97.0906C91.7424 95.5729 90.8732 93.5747 90.7642 91.4656C90.6857 89.2024 91.5083 87.0004 93.0515 85.343C94.5946 83.6855 96.7323 82.708 98.9954 82.625H99.3142C101.515 82.6139 103.637 83.4495 105.239 84.9589C106.841 86.4682 107.802 88.5357 107.922 90.7337C108.043 92.9316 107.314 95.0917 105.886 96.7671C104.458 98.4424 102.441 99.5048 100.252 99.7344L100.233 99.6031ZM127.111 80.6656C138.558 93.6406 138.867 108.912 134.442 117.772C130.317 125.862 119.442 133.962 104.817 133.962C97.9901 133.823 91.2739 132.208 85.1298 129.228C87.2767 127.7 90.3236 125.253 92.0017 123.725C96.7397 125.778 101.839 126.867 107.002 126.931C116.47 126.931 123.642 122.506 127.917 114.416C130.664 109.072 130.824 102.809 128.227 96.3969C125.04 88.3286 119.37 81.483 112.036 76.85C102.414 70.3638 91.0712 66.9061 79.4673 66.9218H76.7204C76.0799 68.4015 75.0379 69.6722 73.7124 70.5901C72.3868 71.508 70.8308 72.0365 69.2204 72.1156H68.9298C66.7024 72.0882 64.5735 71.1936 62.9952 69.6218C61.4168 68.05 60.5134 65.9248 60.4768 63.6976C60.4402 61.4703 61.2732 59.3166 62.7991 57.6937C64.3249 56.0709 66.4233 55.1068 68.6485 55.0062H68.9579C70.5086 55.0074 72.029 55.4359 73.3521 56.2446C74.6752 57.0533 75.7498 58.2111 76.4579 59.5906H78.9048C98.4048 59.5906 115.524 67.0719 127.111 80.6656ZM49.5329 102.228C49.3724 100.671 49.7495 99.1065 50.6017 97.7937C42.0517 82.9812 37.4767 64.2031 44.4985 44.6562C49.5329 29.9656 62.2079 20.0375 75.9517 20.0375C90.6142 20.0375 105.886 32.8719 107.714 57.6031C105.427 56.8437 102.089 55.7281 100.083 55.3156C99.586 47.225 92.7517 27.0687 76.561 27.3687C70.7579 27.5281 62.2079 30.275 57.811 35.9187C52.3723 42.6558 49.2083 50.9431 48.7735 59.5906C47.743 71.4479 50.5249 83.3245 56.7142 93.4906C57.0558 93.3658 57.4201 93.3146 57.7829 93.3406H58.0829C60.3505 93.2996 62.5415 94.161 64.174 95.7355C65.8064 97.3099 66.7466 99.4683 66.7876 101.736C66.8286 104.004 65.9672 106.195 64.3928 107.827C62.8183 109.459 60.6599 110.4 58.3923 110.441H58.0829C55.8707 110.433 53.7469 109.571 52.154 108.036C50.5612 106.501 49.6223 104.41 49.5329 102.2V102.228Z" fill="#764ABC"/>
</g>
<defs>
<radialGradient id="paint0_radial_401_57" cx="0" cy="0" r="1" gradientUnits="userSpaceOnUse" gradientTransform="translate(76.6288) rotate(90) scale(153.086)">
<stop stop-color="#3E3E43"/>
<stop offset="1" stop-color="#1E1E23"/>
</radialGradient>
<clipPath id="clip0_401_57">
<rect width="120" height="120" fill="white" transform="translate(17.0859 17)"/>
</clipPath>
</defs>
</svg>
