<svg width="154" height="154" viewBox="0 0 154 154" fill="none" xmlns="http://www.w3.org/2000/svg">
<path fill-rule="evenodd" clip-rule="evenodd" d="M0.171753 38.3634V114.895C0.171753 136.011 17.3084 153.172 38.4492 153.172H114.98C136.097 153.172 153.258 136.011 153.258 114.895V38.3634C153.258 17.2464 136.097 0.0859375 114.98 0.0859375H38.4492C17.3084 0.0859375 0.171753 17.2464 0.171753 38.3634Z" fill="url(#paint0_radial_401_153)"/>
<path fill-rule="evenodd" clip-rule="evenodd" d="M14.3909 69.2419C14.3909 69.9449 14.5979 70.4089 14.7139 70.8599C15.4699 73.7929 17.0949 76.3099 19.0229 78.6059C21.7689 81.8779 25.1319 84.5119 28.5769 86.9889C31.5649 89.1369 34.6139 91.2369 37.6139 93.3689C38.1289 93.7349 38.6159 94.1559 39.1749 94.6049C38.6939 94.8649 38.2939 95.0939 37.8779 95.3049C33.9189 97.3129 30.1099 99.5639 26.5989 102.291C24.4829 103.935 22.4369 105.682 20.9919 107.965C18.6669 111.637 17.8439 115.549 19.5769 119.726C20.0829 120.946 20.8549 122 21.9439 122.779C22.2969 123.031 22.6929 123.281 23.1059 123.379C24.1639 123.628 25.2419 123.791 26.3129 123.988L29.3459 123.986C32.6999 123.687 35.7529 122.538 38.5119 120.634C42.8239 117.658 45.7289 113.668 46.9779 108.547C47.8859 104.825 47.9229 101.099 46.8529 97.3939C46.7505 97.0507 46.6323 96.7123 46.4989 96.3799C46.3689 96.0469 46.2159 95.7229 46.0359 95.3079L52.9119 91.3539L53.0149 91.4419C52.8899 91.8509 52.7569 92.2589 52.6439 92.6719C51.8269 95.6559 51.2839 98.6919 51.4789 101.789C51.6869 105.089 52.6079 108.178 54.5399 110.935C56.1019 113.165 59.8239 113.248 61.4839 111.01C62.0729 110.215 62.6439 109.384 63.0729 108.497C64.1939 106.182 65.2319 103.826 66.3029 101.486L66.4899 101.058C66.4129 102.166 66.3229 103.139 66.2819 104.113C66.2179 105.634 66.3069 107.146 66.8269 108.593C67.2719 109.831 68.0289 110.756 69.4469 110.919C70.4169 111.03 71.1899 110.586 71.9029 110.023C73.0074 109.15 73.923 108.062 74.5939 106.824C76.4949 103.333 78.4469 99.8629 80.1699 96.2839C82.0339 92.4129 83.6639 88.4289 85.3949 84.4919L85.6809 83.7939C86.0899 85.4009 86.3749 86.9749 86.8999 88.4649C87.5099 90.1939 88.2649 91.8819 89.0869 93.5229C89.4759 94.2979 89.4309 94.8009 88.8919 95.4509C86.6359 98.1709 84.4189 100.924 82.1999 103.674C81.7089 104.281 81.2199 104.899 80.8109 105.562C80.5627 105.981 80.3996 106.444 80.3309 106.926C80.262 107.37 80.3676 107.823 80.6254 108.19C80.8833 108.557 81.2733 108.811 81.7139 108.897C82.6029 109.088 83.5146 109.153 84.4219 109.09C87.5189 108.862 90.3309 107.775 92.8169 105.933C96.0379 103.547 97.0719 100.291 96.2919 96.4319C96.0809 95.3849 95.7079 94.3669 95.3449 93.3579C95.1819 92.9029 95.1709 92.5839 95.4679 92.1599C98.0429 88.4829 100.243 84.5819 102.289 80.5909C102.37 80.4339 102.453 80.2769 102.595 80.1089C103.258 83.5589 104.256 86.8839 106.044 89.9009C105.132 90.7799 104.229 91.5769 103.412 92.4549C101.613 94.3889 100.053 96.4889 99.2389 99.0499C98.8889 100.154 98.6199 101.276 98.7759 102.455C99.0179 104.286 100.518 105.476 102.319 105.059C106.173 104.167 109.5 102.351 111.931 99.1339C113.567 96.9679 113.716 94.5519 113.031 92.0209C112.843 91.3329 112.62 90.6559 112.38 89.8669C113.331 89.5719 114.258 89.2179 115.217 88.9989C120.196 87.8629 125.121 88.0609 129.919 89.8589C132.72 90.9089 134.983 92.6659 136.325 95.4299C137.964 98.8089 137.058 102.015 133.873 104.151C133.576 104.35 133.236 104.507 132.99 104.756C132.911 104.847 132.852 104.954 132.817 105.069C132.782 105.185 132.771 105.306 132.785 105.426C132.806 105.549 133.131 105.703 133.318 105.701C134.365 105.693 135.214 105.144 136.029 104.58C138.071 103.167 139.561 101.266 139.882 98.7629L139.945 98.5749L139.868 96.9449C139.837 96.8509 139.891 96.7579 139.884 96.6869C139.45 93.0419 137.503 90.2149 134.671 87.9989C131.391 85.4339 127.518 84.3779 123.422 84.2109C120.1 84.068 116.782 84.5786 113.657 85.7139C112.76 86.0389 111.871 86.4239 110.969 86.7869C110.848 86.5679 110.718 86.3579 110.611 86.1409C109.685 84.2449 108.563 82.4329 108.315 80.2589C108.139 78.7149 107.923 77.1729 108.29 75.6459C108.643 74.1769 109.103 72.7329 109.536 71.2839C109.759 70.5379 109.602 70.1199 108.89 69.7839C108.642 69.6602 108.377 69.5733 108.104 69.5259C106.354 69.2719 104.628 69.4169 102.933 69.9099C102.333 70.0849 101.897 70.4209 101.764 71.0849C101.688 71.4659 101.533 71.8309 101.425 72.2069C100.982 73.7699 100.668 75.3629 99.9519 76.8519C98.1579 80.5869 96.1099 84.1809 94.0139 87.7489C93.7869 88.1339 93.5479 88.5119 93.2619 88.9789C92.5259 87.4389 91.7409 86.0569 91.5029 84.4369C91.2339 82.6049 91.0219 80.7759 91.4779 78.9579C91.8169 77.6019 92.2599 76.2709 92.6679 74.9329C92.8609 74.2969 92.7719 73.9629 92.1959 73.6279C91.9049 73.4589 91.5759 73.3089 91.2479 73.2599C89.4535 72.9866 87.62 73.1366 85.8939 73.6979C85.3509 73.8739 85.0659 74.2249 84.8999 74.7849C84.4119 76.4369 83.9959 78.1289 83.3109 79.6999C80.5369 86.0599 77.6829 92.3869 74.8319 98.7129C74.2369 100.034 73.5399 101.309 72.8689 102.595C72.6989 102.921 72.4509 103.208 72.2389 103.514C72.0689 103.313 72.0029 103.175 72.0039 103.037C72.0089 102.224 71.9119 101.387 72.0669 100.601C72.5428 98.2238 73.0689 95.8569 73.6449 93.5019C74.1149 91.5559 74.6619 89.6279 75.1829 87.6949C75.3579 87.0479 75.3609 86.4429 74.8959 85.8989C74.1149 84.9879 72.4829 84.7879 71.5149 85.4899L71.0869 85.7319L71.1699 85.0419C71.3739 83.5629 71.4149 82.0889 71.0089 80.6319C70.5029 78.8159 69.2069 77.7709 67.3229 77.8289C66.4449 77.8559 65.5229 78.0059 64.7099 78.3259C61.2909 79.6659 58.6619 82.0389 56.4239 84.8939C56.2164 85.159 55.9593 85.3812 55.6669 85.5479C52.7739 87.1519 49.8719 88.7359 46.9709 90.3259L43.7419 92.0949C42.8759 91.2689 42.0889 90.4119 41.1959 89.6849C38.4689 87.4609 35.6979 85.2919 32.9519 83.0929C30.5179 81.1439 28.1599 79.1139 26.3559 76.5329C25.0139 74.6129 24.1489 72.5119 24.0659 70.1379C23.9609 67.1129 24.8189 64.3489 26.3589 61.7759C28.3289 58.4839 31.0159 55.8419 33.9699 53.4489C37.0949 50.9189 40.4749 48.7709 43.9779 46.8099C48.8789 44.0669 53.9199 41.6389 59.3249 40.0359C64.8669 38.3919 70.4899 37.4509 76.2899 38.1069C78.5699 38.3649 80.7839 38.8869 82.8169 40.0019C84.3739 40.8549 85.6509 41.9719 86.2449 43.7179C86.8309 45.4359 86.8129 47.1769 86.4069 48.9219C85.5819 52.4559 83.6469 55.3689 81.2119 57.9719C77.2179 62.2389 72.3459 65.1439 66.8609 67.0629C63.7071 68.1678 60.4259 68.8677 57.0959 69.1459C54.3669 69.3749 51.6949 69.1329 49.1109 68.1839C47.3999 67.5549 45.9099 66.5929 44.7119 65.1969C44.4979 64.9469 44.2239 64.6759 43.8249 64.9099C43.4339 65.1399 43.3649 65.5119 43.4959 65.8889C43.7149 66.5149 43.9169 67.1669 44.2579 67.7269C45.1149 69.1319 46.3649 70.1509 47.7409 71.0249C50.3839 72.7059 53.3379 73.2709 56.4009 73.4019C61.0489 73.6029 65.5839 72.9089 70.0549 71.6619C76.4379 69.8819 81.9879 66.7379 86.4389 61.7779C90.1449 57.6479 92.7919 52.9869 93.3589 47.3589C93.6359 44.6119 93.3409 41.9209 92.0549 39.4149C90.6599 36.6999 88.4419 34.6809 85.7899 33.2899C81.9279 31.2649 77.7599 30.0859 73.4579 30.0859H69.1479C63.9379 30.0859 58.9009 31.5789 54.0049 33.3599C50.2989 34.7089 46.6649 36.3009 43.1369 38.0629C35.4539 41.9019 28.2989 46.5309 22.4219 52.8959C19.4939 56.0669 17.0149 59.5659 15.5889 63.6859C15.1585 64.916 14.7877 66.1661 14.4779 67.4319M42.3169 103.445C41.9839 107.904 39.9629 111.519 36.6599 114.447C34.8019 116.093 32.6709 117.265 30.1889 117.677C29.2889 117.826 28.3679 117.862 27.4949 117.489C26.2499 116.957 25.9709 115.852 25.9469 114.675C25.9099 112.799 26.5669 111.103 27.4679 109.489C28.6439 107.385 30.3679 105.781 32.2089 104.283C35.1089 101.922 38.2549 99.9239 41.4769 98.0379L41.7199 97.9379C42.2179 99.7779 42.4549 101.595 42.3169 103.445ZM67.4749 84.0659C67.2399 85.4899 66.9459 86.9149 66.5299 88.2949C65.0919 93.0719 63.2449 97.7009 61.2479 102.268C60.8789 103.113 60.3419 103.884 59.8749 104.685C59.7954 104.808 59.7003 104.92 59.5919 105.019C59.0139 105.59 58.4659 105.56 58.1739 104.813C57.8339 103.945 57.6249 103.016 57.4449 102.097C57.3239 101.48 57.3529 100.832 57.3149 100.2C57.3539 95.7059 58.7249 91.6219 61.0509 87.8199C62.0099 86.2519 63.0539 84.7579 64.6489 83.7659C65.145 83.4574 65.6819 83.2198 66.2439 83.0599C67.0939 82.8209 67.6159 83.2139 67.4749 84.0659ZM84.6389 105.934L90.8079 98.7309C91.0649 101.406 86.5179 106.746 84.6389 105.934ZM104.342 101.087C103.906 101.337 103.431 101.517 102.984 101.748C102.575 101.96 102.44 101.746 102.428 101.394C102.422 101.15 102.453 100.907 102.521 100.673C103.354 97.7349 104.887 95.2269 107.168 93.1869L107.328 93.1049C108.413 96.1399 107.159 99.4729 104.342 101.087Z" fill="#CB6699"/>
<defs>
<radialGradient id="paint0_radial_401_153" cx="0" cy="0" r="1" gradientUnits="userSpaceOnUse" gradientTransform="translate(76.7148 0.0859375) rotate(90) scale(153.086)">
<stop stop-color="#3E3E43"/>
<stop offset="1" stop-color="#1E1E23"/>
</radialGradient>
</defs>
</svg>
