<svg width="154" height="154" viewBox="0 0 154 154" fill="none" xmlns="http://www.w3.org/2000/svg">
<path fill-rule="evenodd" clip-rule="evenodd" d="M-0.00012207 38.4496V114.981C-0.00012207 136.098 17.1365 153.258 38.2773 153.258H114.808C135.925 153.258 153.086 136.098 153.086 114.981V38.4496C153.086 17.3326 135.925 0.172119 114.808 0.172119H38.2773C17.1365 0.172119 -0.00012207 17.3326 -0.00012207 38.4496Z" fill="url(#paint0_radial_401_102)"/>
<g clip-path="url(#clip0_401_102)">
<path d="M26.227 69.2461C22.699 69.2461 20.5 71.0241 19.625 74.5471C20.949 72.7741 22.5 72.1211 24.25 72.5701C25.25 72.8201 25.977 73.5471 26.773 74.3711C28.074 75.6951 29.574 77.2231 32.852 77.2231C36.375 77.2231 38.574 75.4451 39.449 71.9221C38.125 73.6951 36.574 74.3481 34.824 73.8991C33.824 73.6491 33.102 72.9221 32.301 72.0981C31 70.7741 29.5 69.2461 26.227 69.2461ZM19.602 77.1721C16.074 77.1721 13.875 78.9451 13 82.4721C14.324 80.6951 15.875 80.0471 17.625 80.4961C18.625 80.7461 19.352 81.4731 20.148 82.2971C21.449 83.6211 22.949 85.1491 26.227 85.1491C29.75 85.1491 31.949 83.3711 32.824 79.8481C31.5 81.6211 29.949 82.2741 28.199 81.8201C27.199 81.5701 26.477 80.8481 25.676 80.0241C24.398 78.6951 22.898 77.1721 19.602 77.1721Z" fill="#38BDF8"/>
<path d="M52.6759 75.9221H50.375V80.3991C50.375 81.5981 51.1479 81.5701 52.6749 81.4961V83.2971C49.5749 83.6721 48.352 82.8201 48.352 80.3991V75.9221H46.6479V73.9961H48.352V71.4961L50.352 70.8991V73.9961H52.6479V75.9221H52.6759ZM61.476 73.9961H63.476V83.2971H61.476V81.9451C60.773 82.9221 59.676 83.5241 58.226 83.5241C55.699 83.5241 53.602 81.3711 53.602 78.6211C53.602 75.8481 55.699 73.7231 58.227 73.7231C59.676 73.7231 60.773 74.3201 61.477 75.2971L61.476 73.9961ZM58.5229 81.6211C60.1989 81.6211 61.477 80.3711 61.477 78.6491C61.477 76.9221 60.1989 75.6721 58.5229 75.6721C56.8519 75.6721 55.574 76.9221 55.574 78.6491C55.602 80.3711 56.8509 81.6211 58.5229 81.6211ZM66.824 72.5981C66.125 72.5981 65.5509 71.9961 65.5509 71.3201C65.5509 70.6211 66.125 70.0471 66.824 70.0471C67.524 70.0471 68.102 70.6211 68.102 71.3201C68.125 71.9961 67.523 72.5981 66.824 72.5981ZM65.824 83.2971V73.9971H67.824V83.2971H65.824ZM70.1479 83.2971V69.7231H72.1479V83.2971H70.1479ZM85.2269 73.9971H87.3519L84.426 83.2971H82.4489L80.523 77.0241L78.5739 83.2971H76.602L73.6759 73.9971H75.7999L77.5999 80.4221L79.55 73.9961H81.4759L83.397 80.4221L85.2269 73.9971ZM89.8239 72.5971C89.1249 72.5971 88.551 71.9971 88.551 71.3201C88.551 70.6211 89.1249 70.0471 89.8239 70.0471C90.5239 70.0471 91.1019 70.6211 91.1019 71.3201C91.1249 71.9961 90.5509 72.5971 89.8239 72.5971ZM88.8239 83.2971V73.9971H90.8239V83.2971H88.8239ZM98.051 73.7471C100.125 73.7471 101.625 75.1721 101.625 77.5701V83.2971H99.625V77.7971C99.625 76.3711 98.801 75.6491 97.551 75.6491C96.227 75.6491 95.176 76.4221 95.176 78.3201V83.3201H93.176V74.0241H95.176V75.2231C95.801 74.2231 96.801 73.7471 98.051 73.7471ZM111.176 70.2741H113.176V83.2971H111.176V81.9451C110.476 82.9221 109.375 83.5241 107.926 83.5241C105.398 83.5241 103.301 81.3711 103.301 78.6211C103.301 75.8481 105.398 73.7231 107.926 73.7231C109.375 73.7231 110.476 74.3201 111.176 75.2971V70.2741ZM108.226 81.6211C109.898 81.6211 111.176 80.3711 111.176 78.6491C111.176 76.9221 109.898 75.6721 108.226 75.6721C106.551 75.6721 105.273 76.9221 105.273 78.6491C105.273 80.3711 106.55 81.6211 108.226 81.6211ZM119.898 83.5471C117.102 83.5471 114.977 81.3991 114.977 78.6491C114.977 75.8711 117.074 73.7461 119.898 73.7461C121.727 73.7461 123.301 74.6961 124.051 76.1491L122.324 77.1491C121.926 76.2741 121 75.7231 119.875 75.7231C118.227 75.7231 117 76.9731 117 78.6491C117 80.3201 118.25 81.5701 119.875 81.5701C121 81.5701 121.898 80.9961 122.352 80.1491L124.074 81.1211C123.324 82.5981 121.727 83.5471 119.898 83.5471ZM127.426 76.5471C127.426 78.2471 132.426 77.2231 132.426 80.6721C132.426 82.5241 130.801 83.5471 128.801 83.5471C126.949 83.5471 125.601 82.6951 125 81.3711L126.727 80.3711C127.023 81.2231 127.773 81.7231 128.801 81.7231C129.699 81.7231 130.375 81.4221 130.375 80.6721C130.375 79.0241 125.375 79.9451 125.375 76.6221C125.375 74.8721 126.875 73.7741 128.773 73.7741C130.301 73.7741 131.574 74.4731 132.227 75.6951L130.523 76.6491C130.199 75.9221 129.551 75.5981 128.773 75.5981C128.051 75.5701 127.426 75.8981 127.426 76.5471ZM136 76.5471C136 78.2471 141 77.2231 141 80.6721C141 82.5241 139.375 83.5471 137.375 83.5471C135.523 83.5471 134.175 82.6951 133.575 81.3711L135.301 80.3711C135.601 81.2231 136.351 81.7231 137.375 81.7231C138.273 81.7231 138.949 81.4221 138.949 80.6721C138.949 79.0241 133.949 79.9451 133.949 76.6221C133.949 74.8721 135.449 73.7741 137.352 73.7741C138.875 73.7741 140.148 74.4731 140.801 75.6951L139.101 76.6491C138.773 75.9221 138.125 75.5981 137.351 75.5981C136.625 75.5701 136 75.8981 136 76.5471Z" fill="white"/>
</g>
<defs>
<radialGradient id="paint0_radial_401_102" cx="0" cy="0" r="1" gradientUnits="userSpaceOnUse" gradientTransform="translate(76.5429 0.172119) rotate(90) scale(153.086)">
<stop stop-color="#3E3E43"/>
<stop offset="1" stop-color="#1E1E23"/>
</radialGradient>
<clipPath id="clip0_401_102">
<rect width="128" height="128" fill="white" transform="translate(13 13.1721)"/>
</clipPath>
</defs>
</svg>
