<svg width="154" height="154" viewBox="0 0 154 154" fill="none" xmlns="http://www.w3.org/2000/svg">
<path fill-rule="evenodd" clip-rule="evenodd" d="M0.25769 38.2775V114.809C0.25769 135.926 17.3944 153.086 38.5352 153.086H115.066C136.183 153.086 153.344 135.926 153.344 114.809V38.2775C153.344 17.1605 136.183 0 115.066 0H38.5352C17.3944 0 0.25769 17.1605 0.25769 38.2775Z" fill="url(#paint0_radial_401_118)"/>
<path d="M39.8027 61.5938H130.129V128.357H39.8027V61.5938Z" fill="white"/>
<path d="M20.6172 76.9185V133.559H133.898V20.2778H20.6172V76.9185ZM111.904 72.3872C114.617 73.0168 117.083 74.4359 118.991 76.4653C120.041 77.5587 120.954 78.776 121.709 80.0903C121.709 80.2353 116.816 83.5431 113.834 85.3919C113.725 85.4644 113.29 84.9931 112.81 84.2772C112.266 83.338 111.492 82.5521 110.562 81.9926C109.632 81.4332 108.575 81.1186 107.49 81.0781C104.056 80.8425 101.844 82.646 101.863 85.6094C101.834 86.3472 102.003 87.0792 102.352 87.73C103.104 89.2978 104.509 90.2313 108.913 92.1344C117.024 95.6235 120.495 97.9253 122.652 101.197C125.062 104.822 125.597 110.676 123.966 115.008C122.153 119.721 117.713 122.92 111.432 123.98C108.564 124.309 105.666 124.278 102.805 123.889C98.4202 123.167 94.3812 121.061 91.2775 117.881C90.2353 116.73 88.2053 113.73 88.3322 113.513C88.663 113.267 89.0113 113.046 89.3744 112.851L93.5703 110.531L96.8237 108.646L97.5034 109.652C98.6505 111.293 100.11 112.691 101.799 113.767C105.424 115.67 110.372 115.407 112.819 113.205C113.641 112.398 114.153 111.328 114.267 110.182C114.382 109.036 114.09 107.887 113.444 106.933C112.538 105.674 110.726 104.613 105.66 102.402C99.8144 99.8828 97.295 98.3241 94.9931 95.841C93.5561 94.2024 92.4951 92.2691 91.8847 90.1769C91.4293 87.7866 91.362 85.3386 91.6853 82.9269C92.8906 77.281 97.1228 73.3388 103.303 72.1697C106.166 71.8155 109.065 71.895 111.904 72.4053V72.3872ZM85.3144 77.136V81.776H70.6059V123.672H60.175V81.7669H45.4303V77.2356C45.3844 75.673 45.4207 74.1091 45.5391 72.5503C45.6116 72.4688 54.6016 72.4688 65.4766 72.4688H85.26L85.3144 77.136Z" fill="#007ACC"/>
<defs>
<radialGradient id="paint0_radial_401_118" cx="0" cy="0" r="1" gradientUnits="userSpaceOnUse" gradientTransform="translate(76.8007) rotate(90) scale(153.086)">
<stop stop-color="#3E3E43"/>
<stop offset="1" stop-color="#1E1E23"/>
</radialGradient>
</defs>
</svg>
