<svg width="154" height="154" viewBox="0 0 154 154" fill="none" xmlns="http://www.w3.org/2000/svg">
<path fill-rule="evenodd" clip-rule="evenodd" d="M0.0858154 38.4496V114.981C0.0858154 136.098 17.2225 153.258 38.3633 153.258H114.894C136.011 153.258 153.172 136.098 153.172 114.981V38.4496C153.172 17.3326 136.011 0.172119 114.894 0.172119H38.3633C17.2225 0.172119 0.0858154 17.3326 0.0858154 38.4496Z" fill="url(#paint0_radial_401_133)"/>
<path d="M137.852 32.6921L80.4098 135.41C79.2228 137.531 76.1758 137.543 74.9728 135.434L16.3908 32.7041C15.0778 30.4021 17.0428 27.6171 19.6518 28.0821L77.1558 38.3591C77.5228 38.4261 77.8989 38.4261 78.2658 38.3591L134.566 28.0981C137.164 27.6251 139.141 30.3871 137.852 32.6921Z" fill="url(#paint1_linear_401_133)"/>
<path d="M104.546 14.6021L62.04 22.9301C61.7007 22.9964 61.3931 23.1735 61.1654 23.4336C60.9377 23.6937 60.8028 24.0221 60.782 24.3671L58.165 68.5351C58.1509 68.7773 58.1934 69.0195 58.2892 69.2424C58.3849 69.4654 58.5312 69.663 58.7165 69.8195C58.9019 69.9761 59.1211 70.0875 59.3569 70.1447C59.5926 70.2019 59.8385 70.2034 60.075 70.1491L71.911 67.4141C72.1659 67.3555 72.4314 67.3619 72.6832 67.4326C72.935 67.5034 73.165 67.6362 73.3521 67.8189C73.5393 68.0017 73.6775 68.2285 73.7542 68.4785C73.8309 68.7286 73.8435 68.9939 73.791 69.2501L70.274 86.4691C70.2202 86.7341 70.2362 87.0086 70.3203 87.2656C70.4045 87.5226 70.5539 87.7533 70.754 87.9352C70.954 88.1172 71.1979 88.2441 71.4617 88.3035C71.7255 88.3628 72.0002 88.3527 72.259 88.2741L79.567 86.0511C80.7 85.7071 81.79 86.7031 81.552 87.8631L75.962 114.91C75.614 116.602 77.864 117.524 78.802 116.074L79.427 115.106L114.067 45.9761C114.649 44.8161 113.646 43.4961 112.377 43.7421L100.192 46.0941C99.9298 46.145 99.6589 46.1277 99.4053 46.0438C99.1517 45.9599 98.924 45.8122 98.744 45.6149C98.5639 45.4175 98.4376 45.1773 98.3772 44.9171C98.3168 44.6569 98.3243 44.3856 98.399 44.1291L106.349 16.5671C106.424 16.3098 106.431 16.0375 106.37 15.7765C106.309 15.5156 106.182 15.2748 106 15.0773C105.819 14.8799 105.59 14.7324 105.335 14.6492C105.081 14.5659 104.809 14.5497 104.546 14.6021Z" fill="url(#paint2_linear_401_133)"/>
<defs>
<radialGradient id="paint0_radial_401_133" cx="0" cy="0" r="1" gradientUnits="userSpaceOnUse" gradientTransform="translate(76.6288 0.172119) rotate(90) scale(153.086)">
<stop stop-color="#3E3E43"/>
<stop offset="1" stop-color="#1E1E23"/>
</radialGradient>
<linearGradient id="paint1_linear_401_133" x1="14.959" y1="24.4117" x2="86.4528" y2="121.506" gradientUnits="userSpaceOnUse">
<stop stop-color="#41D1FF"/>
<stop offset="1" stop-color="#BD34FE"/>
</linearGradient>
<linearGradient id="paint2_linear_401_133" x1="73.856" y1="16.8621" x2="86.7889" y2="105.58" gradientUnits="userSpaceOnUse">
<stop stop-color="#FFEA83"/>
<stop offset="0.083" stop-color="#FFDD35"/>
<stop offset="1" stop-color="#FFA800"/>
</linearGradient>
</defs>
</svg>
