<svg width="154" height="154" viewBox="0 0 154 154" fill="none" xmlns="http://www.w3.org/2000/svg">
<path fill-rule="evenodd" clip-rule="evenodd" d="M0.171753 38.4496V114.981C0.171753 136.098 17.3084 153.258 38.4492 153.258H114.98C136.097 153.258 153.258 136.098 153.258 114.981V38.4496C153.258 17.3326 136.097 0.172119 114.98 0.172119H38.4492C17.3084 0.172119 0.171753 17.3326 0.171753 38.4496Z" fill="url(#paint0_radial_401_140)"/>
<path d="M130.462 111.272L79.4118 140.172V117.662L111.172 100.172L130.462 111.272ZM133.962 108.112V47.7221L115.282 58.5221V97.3321L133.952 108.102L133.962 108.112ZM23.8818 111.272L74.8818 140.152V117.662L43.1118 100.172L23.8818 111.272ZM20.3818 108.112V47.7221L39.0618 58.5221V97.3321L20.3818 108.112ZM22.5718 43.8121L74.9318 14.1721V35.9321L41.3818 54.3821L41.1118 54.5321L22.5718 43.8121ZM131.752 43.8121L79.4118 14.1721V35.9321L112.962 54.3721L113.232 54.5221L131.772 43.8121H131.752Z" fill="#8ED6FB"/>
<path d="M74.932 112.542L43.542 95.2722V61.0922L74.932 79.1722V112.542ZM79.412 112.542L110.802 95.2922V61.0922L79.412 79.1722V112.542ZM45.672 57.1722L77.172 39.8322L108.672 57.1722L77.172 75.3322L45.672 57.1722Z" fill="#1C78C0"/>
<defs>
<radialGradient id="paint0_radial_401_140" cx="0" cy="0" r="1" gradientUnits="userSpaceOnUse" gradientTransform="translate(76.7148 0.172119) rotate(90) scale(153.086)">
<stop stop-color="#3E3E43"/>
<stop offset="1" stop-color="#1E1E23"/>
</radialGradient>
</defs>
</svg>
